<svg width="88" height="91" viewBox="0 0 88 91" fill="none" xmlns="http://www.w3.org/2000/svg">
<g clip-path="url(#clip0_5002_3688)">
<path d="M41.175 5.10572C41.4836 5.10052 41.4836 5.10052 41.7985 5.09521C42.4751 5.17972 42.8422 5.3978 43.4 5.7908C43.94 5.98333 44.41 6.01485 44.9875 6.06225C45.7935 6.16313 46.2319 6.40965 46.8 7.03171C47.3733 8.12933 47.2769 9.34316 47.2957 10.5581C47.3338 11.9039 47.3338 11.9039 48 13.0294C48.5487 13.4335 49.1264 13.7731 49.7125 14.1152C52.3406 15.7234 54.1597 17.2606 55.0055 20.4135C55.2392 21.4782 55.4357 22.482 55.4 23.5772C55.6517 23.6497 55.9033 23.7222 56.1625 23.7969C58.6983 24.6751 60.8983 26.5509 62.2 28.9544C62.5289 29.9746 62.5016 30.8723 62.2125 31.8887C61.6271 32.7143 60.8823 33.0722 60 33.5044C60 33.7092 60 33.9139 60 34.1249C60.1305 34.1177 60.261 34.1105 60.3954 34.1031C61.4708 34.0686 62.304 34.0504 63.2 34.7453C63.6905 35.9135 63.6087 36.9629 63.5555 38.2112C63.6046 38.9499 63.7368 39.1688 64.2 39.709C64.5402 40.7643 64.4433 41.6535 64.125 42.6949C63.9929 43.2625 63.9373 43.5167 64.2055 44.0376C64.4132 44.301 64.6261 44.5601 64.8435 44.8149C66.0996 46.4996 66.4221 48.6451 66.7 50.6962C66.7405 50.9808 66.7811 51.2654 66.8218 51.55C66.9549 52.4968 67.0787 53.4447 67.2 54.3931C67.2221 54.5652 67.2441 54.7373 67.2668 54.9146C69.2761 70.7089 69.2761 70.7089 67.2 73.6272C65.4023 75.444 63.3187 75.5287 60.925 75.5273C60.693 75.5274 60.461 75.5276 60.222 75.5277C58.5164 75.5169 56.8777 75.3955 55.2 75.0749C55.1902 75.3362 55.1805 75.5974 55.1704 75.8666C55.079 78.1731 54.9548 80.476 54.8 82.7789C54.7752 83.1609 54.7752 83.1609 54.7498 83.5506C54.7334 83.7875 54.7169 84.0245 54.7 84.2686C54.6856 84.4801 54.6712 84.6916 54.6563 84.9095C54.6 85.4158 54.6 85.4158 54.4 85.8294C51.232 85.8294 48.064 85.8294 44.8 85.8294C44.9314 81.6867 45.1421 77.5563 45.4 73.4203C45.0787 73.3896 45.0787 73.3896 44.7508 73.3581C43.6003 73.2083 42.5011 72.8807 41.3875 72.5543C41.1659 72.4895 40.9443 72.4248 40.7159 72.358C38.5427 71.7096 36.5242 70.9317 34.525 69.8269C33.6528 69.3639 33.0891 69.2034 32.1227 69.2783C30.3296 69.2977 28.3089 68.8348 26.8 67.8363C26.3139 67.0822 26.3698 66.7782 26.4 65.8844C26.4967 61.5778 26.4967 61.5778 24.5344 57.9518C23.0561 56.2131 22.1739 53.6993 21.6 51.4976C21.5552 51.3331 21.5103 51.1686 21.4641 50.9992C21.0045 48.9449 21.1652 46.7673 21.2 44.6726C21.0424 44.6432 20.8848 44.6138 20.7224 44.5835C20.2 44.4658 20.2 44.4658 19.8422 44.2372C19.4597 43.6183 19.5209 43.0577 19.525 42.333C19.5235 42.0651 19.522 41.7971 19.5204 41.5211C19.6044 40.7005 19.8445 40.2297 20.2 39.5022C20.25 38.8413 20.25 38.8413 20.2 38.1708C20.1739 37.0418 20.2376 36.3352 20.8 35.3658C21.5362 34.8583 22.0888 34.905 22.9375 34.9263C23.0779 34.9282 23.2183 34.93 23.3629 34.932C23.7087 34.9368 24.0544 34.9443 24.4 34.9522C24.4799 34.7652 24.4799 34.7652 24.5613 34.5744C24.8063 34.113 25.0406 33.8929 25.4195 33.5505C26.3808 32.4085 26.1303 30.8792 26.0891 29.4577C26.0848 29.1429 26.0812 28.8279 26.0782 28.513C26.0691 27.6868 26.0535 26.8609 26.0358 26.0348C26.0077 24.7122 25.9856 23.3897 25.9709 22.0668C25.9642 21.6064 25.9524 21.1463 25.9402 20.6859C25.936 20.4022 25.932 20.1184 25.9283 19.8346C25.9229 19.5882 25.9175 19.3418 25.9119 19.088C26.0479 18.0369 26.5479 17.4065 27.2875 16.7005C28.7933 15.6371 30.4338 15.7604 32.1782 16.0574C34.0362 16.4606 34.0362 16.4606 34.6 16.7522C34.6784 15.3628 34.554 14.0787 34.3 12.7192C33.6834 9.34112 33.6834 9.34112 34.3 8.0658C35.3645 7.18517 36.4399 6.9214 37.8 7.03171C37.998 7.09996 38.196 7.16821 38.4 7.23853C38.4653 7.12389 38.5305 7.00925 38.5977 6.89114C38.6851 6.74131 38.7725 6.59148 38.8625 6.43711C38.9484 6.28835 39.0343 6.13958 39.1227 5.98631C39.6975 5.15247 40.245 5.10931 41.175 5.10572ZM40.4375 6.5793C39.7475 7.29282 39.8086 8.12082 39.8 9.09989C39.8809 9.81126 40.0268 10.4977 40.1875 11.1939C40.4712 12.4582 40.648 13.59 40.6 14.8908C40.27 14.8226 39.94 14.7543 39.6 14.684C39.58 14.5537 39.56 14.4235 39.5393 14.2893C39.4457 13.6922 39.3479 13.0959 39.25 12.4995C39.2186 12.2946 39.1871 12.0897 39.1547 11.8786C38.9497 10.6513 38.7121 9.70186 38 8.68626C37.1408 8.39006 36.7487 8.41515 35.9125 8.77674C35.7434 8.88338 35.5743 8.99002 35.4 9.09989C35.3889 9.37555 35.3814 9.65135 35.375 9.92717C35.3681 10.1575 35.3681 10.1575 35.361 10.3925C35.3836 10.9952 35.3836 10.9952 35.5985 11.6867C35.9004 12.8707 35.8581 14.062 35.85 15.2786C35.8516 15.5103 35.8531 15.7419 35.8547 15.9806C35.8497 18.1916 35.3974 20.1332 34.8125 22.2458C34.0908 24.9275 33.4418 27.5961 33.6 30.4022C33.7939 30.2187 33.9878 30.0353 34.1875 29.8463C34.9891 29.1313 35.8612 28.6247 36.8 28.1272C36.7954 27.9619 36.7908 27.7966 36.786 27.6263C36.7333 24.312 37.206 21.3136 39.5071 18.847C41.2844 17.2596 43.3192 16.8822 45.6 16.959C45.699 17.4709 45.699 17.4709 45.8 17.9931C45.6067 18.0109 45.4133 18.0288 45.2141 18.0472C43.0525 18.2884 41.2386 18.7367 39.7063 20.4595C38.1048 22.7029 37.9266 25.2294 38 27.9203C38.3662 28.015 38.7323 28.1097 39.0985 28.2043C39.3964 28.2813 39.6943 28.3584 39.9922 28.4354C40.2049 28.4904 40.2049 28.4904 40.4219 28.5465C40.6813 28.6135 40.9407 28.6806 41.2 28.7476C41.4221 28.805 41.4221 28.805 41.6487 28.8636C41.7646 28.8936 41.8806 28.9236 42 28.9544C42.0508 28.7449 42.1016 28.5353 42.154 28.3194C42.2234 28.0399 42.2929 27.7604 42.3625 27.4809C42.3957 27.3433 42.4288 27.2057 42.4629 27.064C42.6842 26.1832 42.9769 25.4161 43.4 24.6113C43.73 24.6113 44.06 24.6113 44.4 24.6113C44.3279 24.8603 44.2557 25.1093 44.1813 25.3658C44.0875 25.6917 43.9938 26.0175 43.9 26.3434C43.8524 26.5076 43.8047 26.6718 43.7555 26.841C43.7104 26.9983 43.6653 27.1556 43.6188 27.3177C43.556 27.5354 43.556 27.5354 43.4918 27.7575C43.3835 28.1303 43.3835 28.1303 43.4 28.5408C43.5207 28.4984 43.6414 28.456 43.7657 28.4123C43.9255 28.3566 44.0854 28.3009 44.25 28.2435C44.4078 28.1883 44.5656 28.1331 44.7282 28.0763C46.1592 27.6034 47.4228 27.5254 48.8227 28.1312C49.811 28.6623 50.4873 29.3712 51 30.4022C51.1021 30.3574 51.2042 30.3126 51.3094 30.2664C52.9067 29.6339 54.5685 29.436 56.175 30.1436C57.0469 30.605 57.8811 31.117 58.5875 31.824C59.0288 32.1304 59.0288 32.1304 59.7125 31.9274C60.4929 31.6344 60.4929 31.6344 61 31.0226C61.1792 30.1579 60.9642 29.6204 60.5375 28.8898C58.2643 25.637 54.6621 24.4053 51 23.784C49.9362 23.6183 48.8701 23.4849 47.8 23.3703C47.8 23.0973 47.8 22.8243 47.8 22.5431C48.526 22.4748 49.252 22.4066 50 22.3363C49.6511 21.398 49.3761 20.7085 48.6 20.0613C48.468 20.0613 48.336 20.0613 48.2 20.0613C48.398 19.6518 48.596 19.2423 48.8 18.8203C50.0514 19.5426 50.7462 20.5146 51.2 21.9226C51.068 22.0591 50.936 22.1956 50.8 22.3363C51.1398 22.6876 51.6001 22.6773 52.0625 22.7628C52.3522 22.8176 52.3522 22.8176 52.6477 22.8735C53.239 22.9766 53.239 22.9766 54 22.9567C53.7566 20.5089 53.0689 18.354 51.1813 16.753C50.2845 16.1135 49.3443 15.5513 48.3881 15.0123C47.3292 14.404 46.6626 13.8433 46.1547 12.6691C45.9217 11.6541 45.9284 10.6478 45.9219 9.60805C45.8946 8.60399 45.8946 8.60399 45.4196 7.74184C45.024 7.39517 45.024 7.39517 44.5625 7.48413C44.2038 7.62369 44.2038 7.62369 44 7.85898C44.0101 9.38424 44.2784 10.823 44.6758 12.2862C44.8 12.8226 44.8 12.8226 44.8 13.6499C44.47 13.6499 44.14 13.6499 43.8 13.6499C43.2914 11.8728 42.9026 10.1593 42.7369 8.31261C42.6673 7.59014 42.5993 7.23737 42.2 6.61808C41.524 6.40058 41.1192 6.37566 40.4375 6.5793ZM27.6752 18.3514C27.3192 18.9582 27.3284 19.3562 27.3344 20.0637C27.3353 20.3156 27.3362 20.5675 27.3372 20.8271C27.3414 21.099 27.3457 21.371 27.35 21.6512C27.3524 21.9338 27.3547 22.2165 27.3567 22.4991C27.3856 25.6859 27.4886 28.872 27.6 32.0567C27.804 32.0124 28.0079 31.968 28.2181 31.9224C28.4894 31.8645 28.7607 31.8067 29.0321 31.7489C29.1661 31.7196 29.3 31.6904 29.4381 31.6602C30.4524 31.4458 31.3695 31.3802 32.4 31.4363C32.3896 31.1687 32.3896 31.1687 32.379 30.8958C32.3038 27.3911 33.004 24.168 33.9501 20.8123C34.0109 20.5925 34.0718 20.3726 34.1344 20.1461C34.2182 19.8522 34.2182 19.8522 34.3038 19.5523C34.4033 19.0093 34.3961 18.7103 34.2 18.1999C32.4267 17.0663 29.1716 16.7008 27.6752 18.3514ZM43.6 30.1953C43.2398 31.313 43.8897 32.4349 44.373 33.4564C44.9735 34.8075 44.9735 34.8075 45.8 35.9863C46.9112 36.0801 47.836 35.9421 48.8 35.3658C49.5206 34.6996 50.2165 33.8805 50.4 32.884C50.3276 31.6485 49.9538 30.7635 49.1266 29.873C48.3349 29.1503 47.5405 28.8141 46.4727 28.8526C45.4423 29.0746 44.4749 29.6004 43.6 30.1953ZM34.6 31.4363C34.4815 31.5194 34.3629 31.6026 34.2407 31.6883C33.9048 32.2026 33.9791 32.6118 34.0763 33.2058C34.3342 34.2593 34.7392 35.2541 35.1375 36.2577C35.222 36.4778 35.3064 36.6979 35.3934 36.9246C36.2463 39.105 37.2545 41.0776 38.6625 42.9276C38.8315 43.1524 38.8315 43.1524 39.0039 43.3817C40.5362 45.5952 40.5362 45.5952 42.6 47.1544C42.8257 46.9267 43.0505 46.6982 43.275 46.4694C43.4003 46.3422 43.5256 46.215 43.6547 46.084C44.0362 45.6885 44.0362 45.6885 44.4 45.0863C44.7907 44.8285 44.7907 44.8285 45.25 44.5821C45.9982 44.1693 46.6988 43.7193 47.4 43.2249C47.7321 43.0159 48.065 42.8083 48.4 42.6044C48.3005 41.6475 48.0891 41.0913 47.525 40.3294C47.3812 40.1322 47.2373 39.9349 47.0891 39.7316C46.7502 39.2859 46.4087 38.8449 46.061 38.4067C44.4189 36.3258 43.0386 34.2503 42.4375 31.6043C42.192 30.6884 42.192 30.6884 41.5407 30.0588C40.9579 29.8213 40.4173 29.6833 39.8 29.5749C39.6075 29.5378 39.4149 29.5008 39.2165 29.4626C37.1677 29.1675 36.0304 30.0215 34.6 31.4363ZM51.4 32.4703C51.1046 33.0893 50.8687 33.7159 50.6352 34.3624C50.153 35.5717 49.3321 36.115 48.2 36.6067C47.7358 36.7616 47.2726 36.8933 46.8 37.0203C47.3032 37.8224 47.8361 38.5925 48.3875 39.36C49.077 40.3328 49.6675 41.3254 50.2 42.3976C50.266 42.3976 50.332 42.3976 50.4 42.3976C50.4266 42.2305 50.4532 42.0633 50.4805 41.8911C50.5158 41.6701 50.5512 41.4491 50.5875 41.2213C50.6224 41.003 50.6572 40.7846 50.693 40.5597C50.7864 39.998 50.8889 39.4399 51 38.8817C51.132 38.8817 51.264 38.8817 51.4 38.8817C51.466 38.677 51.532 38.4722 51.6 38.2613C51.798 38.193 51.996 38.1248 52.2 38.0544C52.2 37.9179 52.2 37.7814 52.2 37.6408C52.5875 37.606 52.975 37.5716 53.3625 37.5374C53.5783 37.5182 53.7941 37.499 54.0165 37.4792C54.6 37.434 54.6 37.434 55.2 37.434C55.2364 37.2172 55.2364 37.2172 55.2735 36.9961C55.3238 36.7138 55.3238 36.7138 55.375 36.4257C55.4075 36.2386 55.44 36.0514 55.4735 35.8586C55.6 35.3658 55.6 35.3658 56 34.9522C56.675 34.8617 56.675 34.8617 57.4 34.9522C58.0287 35.4996 58.2411 35.9946 58.3625 36.8135C58.4153 37.4686 58.3734 38.0374 58.2 38.6749C58.596 38.9479 58.992 39.2209 59.4 39.5022C59.5495 37.1329 58.5252 34.6478 57.0399 32.8654C55.9268 31.8216 54.7764 31.5326 53.2922 31.5833C52.4959 31.68 51.9495 31.8467 51.4 32.4703ZM28 34.5385C27.8428 34.6641 27.6855 34.7897 27.5235 34.919C25.063 37.0191 24.4038 39.9516 23.6 43.0181C23.5631 43.1482 23.5261 43.2783 23.488 43.4124C22.944 46.0893 23.0911 49.6363 24.2 52.1181C24.2688 52.2806 24.3376 52.4431 24.4084 52.6105C25.3439 54.8167 26.315 56.8672 27.8 58.7363C27.9014 58.8917 28.0027 59.0471 28.1071 59.2073C28.2038 59.3248 28.3004 59.4424 28.4 59.5635C28.598 59.5635 28.796 59.5635 29 59.5635C29.0476 59.3388 29.0476 59.3388 29.0961 59.1095C29.3959 57.825 29.6796 56.9751 30.6 56.0476C31.2461 55.7136 31.8996 55.7499 32.6 55.8408C33.9648 56.435 34.9923 57.4446 35.6375 58.834C35.85 59.4168 36.0302 60 36.2 60.5976C36.2746 60.8581 36.3491 61.1186 36.4258 61.3869C36.6233 62.0873 36.8133 62.7896 37 63.4931C36.439 62.8095 35.9887 62.113 35.5609 61.3381C34.549 59.3775 34.549 59.3775 33 57.909C32.4171 57.7982 31.9978 57.8331 31.4 57.909C31.2644 61.2386 31.2644 61.2386 32.6 64.1135C32.7362 64.2746 32.8723 64.4356 33.0125 64.6015C34.954 66.7764 37.3291 67.6058 40.029 68.3771C40.4871 68.5083 40.9437 68.6438 41.4004 68.7799C43.8069 69.4872 46.1473 69.985 48.6625 69.9303C48.8321 69.9284 49.0016 69.9266 49.1762 69.9246C49.5842 69.9199 49.9921 69.9125 50.4 69.9044C50.1066 68.984 49.6126 68.3155 49.025 67.5777C46.8599 64.7865 44.6576 61.8858 43.5625 58.4519C42.9021 56.4189 41.8668 54.5701 40.8903 52.6849C39.7358 50.4301 39.7358 50.4301 39.3 49.2485C38.9678 48.5328 38.6301 48.2151 38 47.7749C37.3757 48.0456 37.3757 48.0456 37 48.6022C36.9379 49.7174 37.1003 50.6644 37.375 51.7303C37.4273 51.9442 37.4273 51.9442 37.4805 52.1625C37.6723 52.9309 37.8957 53.6645 38.2 54.3931C37.87 54.5978 37.54 54.8026 37.2 55.0135C35.7644 52.7553 35.0783 50.7219 35.4 47.9817C35.7265 46.8954 36.178 46.0376 37.05 45.3319C37.6237 44.9391 37.6237 44.9391 37.7774 44.3963C37.8082 43.6475 37.5723 43.4207 37.1125 42.85C35.0634 40.0799 33.9776 36.7392 32.8 33.5044C32.4846 33.4656 32.1689 33.4285 31.8532 33.3921C31.6774 33.3713 31.5016 33.3505 31.3206 33.329C30.0248 33.2509 29.0147 33.7201 28 34.5385ZM60.6 35.159C60.6843 35.6379 60.7725 36.116 60.8625 36.5938C60.9113 36.8601 60.96 37.1265 61.0102 37.4009C61.0729 37.6165 61.1355 37.8322 61.2 38.0544C61.8267 38.2705 61.998 38.2477 62.6 38.0544C62.6055 37.7227 62.6093 37.3909 62.6125 37.0591C62.6149 36.8744 62.6172 36.6896 62.6196 36.4993C62.6221 35.9585 62.6221 35.9585 62.4 35.3658C61.8087 35.0601 61.2516 35.1465 60.6 35.159ZM21.6 35.9863C21.2358 36.7395 21.145 36.9824 21.15 37.7701C21.149 37.9306 21.148 38.0911 21.1469 38.2564C21.1642 38.7218 21.1642 38.7218 21.6 39.0885C21.864 39.0885 22.128 39.0885 22.4 39.0885C22.5628 38.6879 22.7252 38.2872 22.8875 37.8864C22.978 37.6633 23.0685 37.4401 23.1618 37.2102C23.3208 36.8074 23.467 36.399 23.6 35.9863C22.94 35.9863 22.28 35.9863 21.6 35.9863ZM61.4 39.2953C61.3674 40.6979 61.3674 40.6979 61.8665 41.9517C62.2943 42.322 62.6272 42.6044 63.2 42.6044C63.4392 41.8316 63.4807 41.1361 63.4 40.3294C63.113 39.8233 62.8132 39.5056 62.4 39.0885C61.9579 39.0667 61.9579 39.0667 61.4 39.2953ZM21 40.1226C20.5721 40.7864 20.5188 41.1029 20.45 41.8806C20.4305 42.0789 20.4109 42.2773 20.3907 42.4816C20.3543 43.0679 20.3543 43.0679 20.8 43.6385C20.998 43.6385 21.196 43.6385 21.4 43.6385C21.598 42.4783 21.796 41.318 22 40.1226C21.67 40.1226 21.34 40.1226 21 40.1226ZM59.2 42.3976C59.2 42.5341 59.2 42.6706 59.2 42.8113C58.672 42.8795 58.144 42.9478 57.6 43.0181C57.534 43.2228 57.468 43.4276 57.4 43.6385C57.6558 43.6513 57.9115 43.6641 58.175 43.6773C58.3908 43.6881 58.3908 43.6881 58.611 43.6991C58.7394 43.6791 58.8678 43.6591 59 43.6385C59.132 43.4338 59.264 43.229 59.4 43.0181C59.334 42.8133 59.268 42.6086 59.2 42.3976ZM60.8 42.6044C60.536 43.2869 60.272 43.9694 60 44.6726C60.2393 44.8049 60.4785 44.9371 60.725 45.0733C62.5193 46.2502 63.1454 48.1947 63.6 50.2567C63.7097 51.2553 63.7557 52.248 63.7857 53.252C63.8106 54.0669 63.8475 54.8811 63.886 55.6954C63.8938 55.8615 63.9017 56.0277 63.9098 56.1989C64.0148 58.2315 64.2674 60.2446 64.536 62.26C64.879 64.8993 65.195 67.4017 63.7149 69.7332C63.0211 70.6305 62.4001 71.0575 61.2758 71.2221C57.9521 71.3031 54.55 69.459 52.1363 67.1776C50.9752 66.021 50.1075 64.6716 49.238 63.2759C48.9637 62.8357 48.6849 62.399 48.4051 61.9625C47.494 60.5314 46.6254 59.0797 45.8094 57.5883C45.7379 57.4577 45.6663 57.3272 45.5926 57.1927C44.9635 56.0221 44.4553 54.8058 43.9524 53.5731C43.5282 52.5481 43.0421 51.5567 42.5504 50.5649C42.4559 50.3736 42.4559 50.3736 42.3594 50.1783C42.2982 50.0544 42.237 49.9305 42.1739 49.8029C41.9986 49.4263 41.8503 49.0451 41.7024 48.6563C41.4001 47.9818 41.1705 47.6816 40.6125 47.232C39.9837 46.7034 39.5027 46.1596 39 45.4999C38.868 45.4999 38.736 45.4999 38.6 45.4999C38.2727 45.9053 38.2727 45.9053 38 46.3272C38.2575 46.5352 38.516 46.7417 38.775 46.9476C38.9189 47.0628 39.0628 47.178 39.211 47.2966C39.5771 47.6066 39.5771 47.6066 40 47.5681C40.1965 48.0723 40.3908 48.5764 40.5735 49.0861C41.1304 50.5705 41.8382 51.9314 42.5875 53.3202C43.4147 54.8559 44.117 56.3582 44.7219 58.0011C46.0959 61.6329 48.2912 64.6468 50.6899 67.6278C51.5171 68.7353 51.6674 69.3614 51.6 70.7317C50.6726 71.217 49.8394 71.2072 48.825 71.1971C48.6735 71.1987 48.5219 71.2003 48.3657 71.2019C45.6143 71.1926 43.0555 70.5871 40.4365 69.7853C39.9355 69.6324 39.4333 69.484 38.9309 69.3361C36.2422 68.5325 34.214 67.6367 32.2 65.5613C32.0776 65.4394 31.9551 65.3176 31.829 65.1921C30.5465 63.807 30.3439 62.0286 30.2 60.184C29.7921 60.4659 29.7921 60.4659 29.4 60.8044C29.4 60.9409 29.4 61.0774 29.4 61.2181C29.532 61.2181 29.664 61.2181 29.8 61.2181C29.8165 61.4825 29.833 61.747 29.85 62.0195C30.0682 63.9848 30.8422 65.621 32.336 66.8781C32.6957 67.1398 33.0612 67.3811 33.4375 67.6165C33.5761 67.7039 33.7147 67.7913 33.8575 67.8813C41.5627 72.5952 52.153 74.0427 61 74.1442C61.2122 74.1481 61.4244 74.1519 61.6431 74.1559C63.3125 74.1416 64.8927 73.8231 66.2 72.6965C67.2093 71.1462 67.2449 69.3598 67.1493 67.5608C67.1398 67.3729 67.1304 67.1851 67.1207 66.9916C66.987 64.6005 66.7127 62.2252 66.4375 59.8479C66.4107 59.6123 66.3838 59.3767 66.3561 59.1339C66.0495 56.4481 65.7417 53.7618 65.375 51.084C65.3483 50.8801 65.3215 50.6763 65.2939 50.4663C64.799 47.0566 63.4458 44.9002 61 42.6044C60.934 42.6044 60.868 42.6044 60.8 42.6044ZM47.85 44.5046C47.5917 44.6305 47.5917 44.6305 47.3282 44.7591C46.7203 45.1357 46.2924 45.5968 45.8 46.1203C46.7368 48.1999 47.6778 50.2774 48.6241 52.3523C48.7786 52.6914 48.9325 53.0307 49.0863 53.3701C49.3008 53.8417 49.5182 54.3116 49.7375 54.7809C49.8497 55.0235 49.9618 55.2661 50.0774 55.516C50.4126 56.0683 50.6117 56.2518 51.2 56.4613C52.024 53.2802 52.024 53.2802 51.8 50.0499C52 49.6363 52 49.6363 52.6 49.4294C52.8597 48.238 53.0515 47.1364 53 45.9135C52.8722 45.8879 52.7443 45.8623 52.6125 45.836C52.4764 45.7933 52.3403 45.7507 52.2 45.7067C52.134 45.5702 52.068 45.4337 52 45.2931C51.802 45.2931 51.604 45.2931 51.4 45.2931C51.334 45.0883 51.268 44.8836 51.2 44.6726C51.2016 44.9043 51.2016 44.9043 51.2032 45.1407C51.2074 45.8378 51.21 46.5349 51.2125 47.232C51.2142 47.4751 51.2159 47.7183 51.2176 47.9688C51.2186 48.3167 51.2186 48.3167 51.2196 48.6716C51.2211 48.9933 51.2211 48.9933 51.2228 49.3215C51.2 49.8431 51.2 49.8431 51 50.2567C50.736 50.2567 50.472 50.2567 50.2 50.2567C50.2356 50.076 50.2712 49.8952 50.3079 49.709C50.5742 47.706 49.8015 45.8362 49 44.0522C48.5942 44.0522 48.2066 44.3273 47.85 44.5046ZM54 46.1203C53.868 47.2806 53.736 48.4408 53.6 49.6363C53.798 49.6363 53.996 49.6363 54.2 49.6363C54.225 50.2309 54.225 50.2309 54.2 50.8772C54.068 51.0137 53.936 51.1502 53.8 51.2908C53.6834 51.7598 53.6834 51.7598 53.6141 52.3063C53.5673 52.6136 53.5673 52.6136 53.5196 52.9272C53.4574 53.3558 53.3959 53.7845 53.3352 54.2133C53.1348 55.52 52.8886 56.773 52.2 57.909C51.4918 58.3973 51.2345 58.4411 50.4 58.3226C49.3621 57.5759 48.8475 56.7912 48.2875 55.634C48.2057 55.4695 48.1239 55.3051 48.0396 55.1357C46.7971 52.5928 45.7058 49.9699 44.6 47.3613C43.9345 47.6822 43.5029 48.045 43 48.6022C44.2173 51.2987 44.2173 51.2987 45.4922 53.9665C45.7154 54.4256 45.9325 54.8855 46.1454 55.3496C48.9032 61.3038 52.4281 67.353 58.6821 69.6823C59.6845 69.9924 60.5701 70.1391 61.6 69.9044C62.5564 69.347 63.0613 68.6181 63.4489 67.5753C63.974 65.6074 63.5099 63.3898 63.225 61.412C62.8366 58.6022 62.6524 55.8033 62.5544 52.9675C62.4621 50.5478 62.1841 48.4278 60.6 46.534C59.745 45.9132 59.0372 45.7719 58 45.9135C57.3531 46.5759 57.1875 47.3894 56.9875 48.279C56.9537 48.4238 56.9199 48.5685 56.885 48.7177C56.5827 50.0475 56.3705 51.3838 56.2 52.7385C54.8389 50.4663 55.0605 48.444 55.6 45.9135C54.9281 45.8932 54.9281 45.8932 54 46.1203ZM52.4 50.0499C52.4 50.1864 52.4 50.3229 52.4 50.4635C52.994 50.5659 52.994 50.5659 53.6 50.6703C53.6 50.5338 53.6 50.3973 53.6 50.2567C53.006 50.1543 53.006 50.1543 52.4 50.0499ZM27.2 61.2181C27.2061 61.3568 27.2122 61.4954 27.2184 61.6383C27.2459 62.2695 27.273 62.9007 27.3 63.5319C27.3096 63.7501 27.3191 63.9683 27.329 64.1931C27.338 64.4044 27.347 64.6157 27.3563 64.8334C27.3647 65.0272 27.3731 65.2211 27.3817 65.4208C27.4 65.9749 27.4 65.9749 27.3786 66.5415C27.3857 66.6958 27.3927 66.85 27.4 67.009C28.5129 68.0112 30.1861 68.1053 31.6 68.0431C31.4268 67.8426 31.2535 67.6421 31.075 67.4355C30.0387 66.1688 29.2351 65.0926 28.9 63.4414C28.7318 62.6198 28.607 62.1251 27.975 61.58C27.4838 61.2002 27.4838 61.2002 27.2 61.2181ZM46.8 73.834C46.547 77.4183 46.3345 80.9971 46.2 84.5885C48.51 84.5885 50.82 84.5885 53.2 84.5885C53.2863 83.5367 53.372 82.4848 53.4564 81.4327C53.4852 81.0757 53.5143 80.7187 53.5437 80.3617C53.6946 78.5272 53.844 76.7111 53.8 74.8681C52.9319 74.72 52.0635 74.5727 51.1951 74.4263C50.8998 74.3763 50.6045 74.3262 50.3093 74.2758C49.8845 74.2033 49.4595 74.1317 49.0344 74.0602C48.7789 74.0169 48.5233 73.9735 48.26 73.9289C47.579 73.815 47.579 73.815 46.8 73.834Z" fill="#401F86"/>
<path d="M56.6874 34.6033C57.4483 34.7551 57.7592 34.9521 58.2124 35.6042C58.6902 36.578 58.6833 37.6332 58.3999 38.675C58.5608 38.7987 58.7217 38.9224 58.8874 39.0499C59.447 39.5438 59.576 39.8108 59.6335 40.5614C59.6348 40.7195 59.6361 40.8776 59.6374 41.0405C59.6403 41.198 59.6431 41.3556 59.646 41.5179C59.5938 42.0461 59.4807 42.3677 59.1999 42.8114C58.5999 43.0828 58.5999 43.0828 57.9999 43.225C57.8679 43.1568 57.7359 43.0885 57.5999 43.0182C57.5814 43.2101 57.5814 43.2101 57.5624 43.406C57.5088 43.551 57.4552 43.696 57.3999 43.8455C57.2473 43.8966 57.0947 43.9478 56.9374 44.0006C56.2951 44.3095 56.2888 44.4459 56.0374 45.0993C55.8491 45.5461 55.8491 45.5461 55.5999 45.9136C55.0336 46.1292 54.6146 46.1205 53.9999 46.1205C53.9817 46.3972 53.9817 46.3972 53.9632 46.6795C53.9464 46.9216 53.9297 47.1637 53.9124 47.4131C53.8962 47.653 53.8799 47.893 53.8632 48.1402C53.8134 48.6663 53.7437 49.1316 53.5999 49.6364C53.7979 49.6364 53.9959 49.6364 54.1999 49.6364C54.3249 50.231 54.3249 50.231 54.3999 50.8773C54.2679 51.0138 54.1359 51.1503 53.9999 51.2909C53.8832 51.7599 53.8832 51.7599 53.814 52.3064C53.7672 52.6137 53.7672 52.6137 53.7195 52.9273C53.6573 53.3559 53.5958 53.7846 53.5351 54.2134C53.3082 55.6925 53.0266 57.1962 52.0249 58.3357C51.4083 58.617 51.0703 58.6519 50.3999 58.5296C49.2843 57.7851 48.6529 56.8304 48.0749 55.6212C47.9943 55.4571 47.9137 55.293 47.8306 55.1239C47.5475 54.5385 47.2728 53.9496 46.9999 53.3591C46.9155 53.177 46.9155 53.177 46.8293 52.9911C46.4574 52.1876 46.0914 51.3816 45.7311 50.5725C45.6106 50.3022 45.4891 50.0324 45.3667 49.7631C45.1943 49.3823 45.0267 48.9992 44.8593 48.616C44.761 48.3941 44.6627 48.1722 44.5614 47.9435C44.3999 47.3614 44.3999 47.3614 44.5384 46.8919C44.8869 46.415 45.293 46.1895 45.7999 45.9136C46.0096 46.3352 46.2178 46.7575 46.4249 47.1804C46.4936 47.3206 46.5622 47.4608 46.633 47.6052C47.1413 48.6562 47.623 49.7184 48.0945 50.7876C48.218 51.0664 48.3415 51.3452 48.4651 51.6241C48.651 52.044 48.8361 52.4643 49.0188 52.8857C49.1926 53.2866 49.3691 53.686 49.546 54.0854C49.6988 54.4356 49.6988 54.4356 49.8548 54.7928C50.2248 55.4731 50.6445 55.9374 51.1999 56.4614C51.8311 53.4362 51.8311 53.4362 51.6788 50.4192C51.6528 50.2974 51.6268 50.1755 51.5999 50.05C51.7979 49.7429 51.7979 49.7429 51.9999 49.4296C52.1979 49.4296 52.3959 49.4296 52.5999 49.4296C52.7319 48.2693 52.8639 47.1091 52.9999 45.9136C52.6699 45.8454 52.3399 45.7771 51.9999 45.7068C51.9999 45.5703 51.9999 45.4338 51.9999 45.2932C51.8019 45.2932 51.6039 45.2932 51.3999 45.2932C51.3999 45.0884 51.3999 44.8837 51.3999 44.6727C51.2679 44.6727 51.1359 44.6727 50.9999 44.6727C50.1875 42.5574 50.2757 41.0171 50.9999 38.8818C51.1319 38.8818 51.2639 38.8818 51.3999 38.8818C51.4659 38.6088 51.5319 38.3358 51.5999 38.0546C51.7979 38.0546 51.9959 38.0546 52.1999 38.0546C52.1999 37.9181 52.1999 37.7816 52.1999 37.6409C53.3082 37.235 54.0416 37.224 55.1999 37.4341C55.1834 37.1824 55.1669 36.9308 55.1499 36.6715C55.1533 36.0125 55.2065 35.7666 55.5124 35.1591C55.9999 34.7455 55.9999 34.7455 56.6874 34.6033ZM52.3999 50.05C52.3999 50.1865 52.3999 50.323 52.3999 50.4636C52.9939 50.566 52.9939 50.566 53.5999 50.6705C53.5999 50.534 53.5999 50.3975 53.5999 50.2568C53.0059 50.1544 53.0059 50.1544 52.3999 50.05Z" fill="#EE0100"/>
<path d="M53.3999 43.4319C53.8949 43.5343 53.8949 43.5343 54.3999 43.6387C54.4348 44.7759 54.3798 45.7586 54.1155 46.8614C53.9036 47.778 53.7576 48.7085 53.5999 49.6364C53.7979 49.6364 53.9959 49.6364 54.1999 49.6364C54.3249 50.231 54.3249 50.231 54.3999 50.8773C54.2679 51.0138 54.1359 51.1503 53.9999 51.291C53.8832 51.76 53.8832 51.76 53.814 52.3065C53.7672 52.6138 53.7672 52.6138 53.7195 52.9273C53.6573 53.3559 53.5958 53.7847 53.5351 54.2135C53.3082 55.6925 53.0266 57.1963 52.0249 58.3357C51.4083 58.6171 51.0703 58.6519 50.3999 58.5296C49.2843 57.7852 48.6529 56.8304 48.0749 55.6212C47.9943 55.4571 47.9137 55.293 47.8306 55.1239C47.5475 54.5386 47.2728 53.9496 46.9999 53.3592C46.9155 53.177 46.9155 53.177 46.8293 52.9912C46.4574 52.1877 46.0914 51.3817 45.7311 50.5725C45.6106 50.3023 45.4891 50.0325 45.3667 49.7632C45.1943 49.3823 45.0267 48.9992 44.8593 48.6161C44.7119 48.2832 44.7119 48.2832 44.5614 47.9436C44.3999 47.3614 44.3999 47.3614 44.5384 46.892C44.8869 46.4151 45.293 46.1896 45.7999 45.9137C46.0096 46.3353 46.2178 46.7575 46.4249 47.1805C46.4936 47.3206 46.5622 47.4608 46.633 47.6053C47.1413 48.6563 47.623 49.7185 48.0945 50.7877C48.218 51.0665 48.3415 51.3453 48.4651 51.6241C48.651 52.0441 48.8361 52.4643 49.0188 52.8858C49.1926 53.2866 49.3691 53.6861 49.546 54.0854C49.6988 54.4356 49.6988 54.4356 49.8548 54.7929C50.2248 55.4731 50.6445 55.9374 51.1999 56.4614C51.8311 53.4363 51.8311 53.4363 51.6788 50.4193C51.6528 50.2974 51.6268 50.1756 51.5999 50.0501C51.7319 49.8453 51.8639 49.6406 51.9999 49.4296C52.1979 49.4296 52.3959 49.4296 52.5999 49.4296C52.6171 49.292 52.6342 49.1544 52.6518 49.0126C52.7301 48.3847 52.8088 47.7567 52.8874 47.1288C52.9144 46.9123 52.9413 46.6958 52.9691 46.4728C53.0967 45.4559 53.2259 44.4417 53.3999 43.4319ZM52.3999 50.0501C52.3999 50.1866 52.3999 50.3231 52.3999 50.4637C52.9939 50.5661 52.9939 50.5661 53.5999 50.6705C53.5999 50.534 53.5999 50.3975 53.5999 50.2569C53.0059 50.1545 53.0059 50.1545 52.3999 50.0501Z" fill="#E4296A"/>
<path d="M56.6875 34.6033C57.4483 34.7551 57.7592 34.9521 58.2125 35.6042C58.6902 36.578 58.6833 37.6332 58.4 38.675C58.5608 38.7987 58.7217 38.9224 58.8875 39.0499C59.447 39.5438 59.5761 39.8108 59.6335 40.5614C59.6348 40.7195 59.6361 40.8776 59.6375 41.0405C59.6403 41.198 59.6431 41.3556 59.646 41.5179C59.5939 42.0448 59.4763 42.3668 59.2 42.8114C58.65 43.1087 58.65 43.1087 58 43.225C57.3643 42.9975 56.9439 42.8307 56.5679 42.2402C56.361 41.6699 56.3538 41.2088 56.3625 40.601C56.3637 40.3997 56.365 40.1984 56.3664 39.991C56.4 39.5023 56.4 39.5023 56.6 39.2955C56.4061 39.1376 56.2122 38.9798 56.0125 38.8172C55.5158 38.4129 55.4095 38.291 55.2 37.6409C55.0968 36.7074 55.0948 35.9926 55.5125 35.1462C56 34.7455 56 34.7455 56.6875 34.6033Z" fill="#E32A6B"/>
<path d="M56.6875 34.6033C57.4187 34.7492 57.5314 34.7948 57.9875 35.3401C58.4 35.9864 58.4 35.9864 58.4 36.4C58.268 36.4 58.136 36.4 58 36.4C57.868 37.0825 57.736 37.765 57.6 38.4682C57.204 38.5364 56.808 38.6047 56.4 38.675C56.136 38.1973 55.872 37.7195 55.6 37.2273C55.468 37.2273 55.336 37.2273 55.2 37.2273C55.1378 36.4075 55.135 35.9058 55.5125 35.172C56 34.7455 56 34.7455 56.6875 34.6033Z" fill="#D9326B"/>
<path d="M54.8 39.9158C55.3637 40.7902 55.3361 41.577 55.2 42.6044C54.8 43.2508 54.8 43.2508 54.4 43.6385C53.45 43.4834 53.45 43.4834 53 43.0181C52.7289 41.7458 52.7918 41.0573 53.4 39.9158C53.9448 39.6341 54.2256 39.7376 54.8 39.9158Z" fill="#FD3405"/>
<path d="M57.6 39.5022C58 39.541 58 39.541 58.4 39.709C58.8898 40.4688 58.8631 40.8803 58.8 41.7772C58.668 41.9137 58.536 42.0502 58.4 42.1908C58 42.1521 58 42.1521 57.6 41.984C57.1102 41.2243 57.1369 40.8127 57.2 39.9158C57.332 39.7793 57.464 39.6428 57.6 39.5022Z" fill="#FDE6F3"/>
<path d="M56.4 35.5728C56.775 35.6374 56.775 35.6374 57.2 35.7796C57.6891 36.5383 57.6472 36.9526 57.6 37.8478C57.534 37.9843 57.468 38.1208 57.4 38.2614C56.925 38.1968 56.925 38.1968 56.4 38.0546C55.9373 37.3369 55.932 37.036 56 36.1932C56.132 35.9885 56.264 35.7837 56.4 35.5728Z" fill="#FEE7F2"/>
<path d="M59.0001 39.2954C59.1321 39.3637 59.2641 39.4319 59.4001 39.5022C59.6689 40.3363 59.6915 41.1113 59.6001 41.984C59.3001 42.514 59.3001 42.514 59.0001 42.8113C59.0001 42.6748 59.0001 42.5383 59.0001 42.3977C58.5381 42.3977 58.0761 42.3977 57.6001 42.3977C57.6001 42.1929 57.6001 41.9882 57.6001 41.7772C57.728 41.8156 57.8558 41.854 57.9876 41.8936C58.1918 41.9384 58.1918 41.9384 58.4001 41.984C58.6466 41.7755 58.6466 41.7755 58.6196 41.3499C58.6173 41.1795 58.615 41.0091 58.6126 40.8336C58.6108 40.6627 58.609 40.4918 58.6071 40.3158C58.6048 40.1838 58.6025 40.0518 58.6001 39.9159C58.7321 39.9159 58.8641 39.9159 59.0001 39.9159C59.0001 39.7111 59.0001 39.5064 59.0001 39.2954Z" fill="#D53272"/>
<path d="M53.4 43.4319C53.73 43.5001 54.06 43.5684 54.4 43.6387C54.4945 45.3331 54.4945 45.3331 54.1 46.03C54.001 46.1281 53.902 46.2263 53.8 46.3273C53.8 46.1226 53.8 45.9178 53.8 45.7069C53.668 45.7069 53.536 45.7069 53.4 45.7069C53.4 45.8434 53.4 45.9799 53.4 46.1205C53.268 46.0523 53.136 45.984 53 45.9137C53.132 45.0947 53.264 44.2757 53.4 43.4319Z" fill="#E9265B"/>
<path d="M55.6 37.0205C56.0307 37.5628 56.2801 37.981 56.4 38.6751C56.664 38.7433 56.928 38.8116 57.2 38.8819C57.068 39.0184 56.936 39.1549 56.8 39.2955C55.9957 38.8684 55.5973 38.4843 55.2 37.641C55.2 37.5045 55.2 37.368 55.2 37.2273C55.332 37.1591 55.464 37.0908 55.6 37.0205ZM56.6 39.2955C56.8665 39.8467 56.8022 40.337 56.7937 40.9412C56.8012 41.445 56.8819 41.9097 57 42.3978C57.198 42.466 57.396 42.5343 57.6 42.6046C57.534 42.7411 57.468 42.8776 57.4 43.0182C56.4126 42.0302 56.4126 42.0302 56.3734 41.2465C56.3739 41.0421 56.3744 40.8376 56.375 40.6269C56.3744 40.4219 56.3739 40.2169 56.3734 40.0056C56.4 39.5023 56.4 39.5023 56.6 39.2955Z" fill="#ED265E"/>
<path d="M44.9999 44.8796C44.9999 45.1526 44.9999 45.4256 44.9999 45.7069C45.3299 45.7069 45.6599 45.7069 45.9999 45.7069C45.4349 46.3128 44.8423 46.8448 44.1999 47.3615C43.7359 45.8462 43.7359 45.8462 44.0374 45.1899C44.3999 44.8796 44.3999 44.8796 44.9999 44.8796Z" fill="#591C7F"/>
<path d="M52.3999 44.4658C52.4659 44.6023 52.5319 44.7388 52.5999 44.8795C52.7979 44.9477 52.9959 45.016 53.1999 45.0863C53.1999 45.3593 53.1999 45.6323 53.1999 45.9135C52.8699 45.9135 52.5399 45.9135 52.1999 45.9135C52.1339 45.7088 52.0679 45.504 51.9999 45.2931C51.8019 45.2931 51.6039 45.2931 51.3999 45.2931C51.3999 45.0883 51.3999 44.8836 51.3999 44.6726C51.9999 44.4658 51.9999 44.4658 52.3999 44.4658Z" fill="#A00000"/>
<path d="M50.3999 40.95C50.4659 40.95 50.5319 40.95 50.5999 40.95C50.6659 41.3595 50.7319 41.769 50.7999 42.1909C50.8659 42.1909 50.9319 42.1909 50.9999 42.1909C51.3182 43.0548 51.4425 43.7485 51.3999 44.6727C51.2679 44.6727 51.1359 44.6727 50.9999 44.6727C50.5041 43.3816 50.336 42.3391 50.3999 40.95Z" fill="#510000"/>
<path d="M52.0001 49.4294C52.2641 49.4977 52.5281 49.5659 52.8001 49.6363C52.8001 49.7728 52.8001 49.9093 52.8001 50.0499C52.6681 50.0499 52.5361 50.0499 52.4001 50.0499C52.4001 50.1864 52.4001 50.3229 52.4001 50.4635C52.5321 50.5318 52.6641 50.6 52.8001 50.6704C52.6021 50.6704 52.4041 50.6704 52.2001 50.6704C52.2001 50.9434 52.2001 51.2164 52.2001 51.4976C52.0681 51.4294 51.9361 51.3611 51.8001 51.2908C51.6501 50.6962 51.6501 50.6962 51.6001 50.0499C51.7321 49.8451 51.8641 49.6404 52.0001 49.4294Z" fill="#D62D67"/>
<path d="M53.3999 43.4319C53.8949 43.5343 53.8949 43.5343 54.3999 43.6387C54.3999 44.253 54.3999 44.8672 54.3999 45.5001C54.3339 45.2271 54.2679 44.9541 54.1999 44.6728C53.9359 44.6728 53.6719 44.6728 53.3999 44.6728C53.3999 44.2633 53.3999 43.8538 53.3999 43.4319Z" fill="#E9183D"/>
<path d="M55.2 38.0544C55.3526 38.1824 55.5052 38.3104 55.6625 38.4422C56.1992 38.8933 56.1992 38.8933 56.8 39.2954C56.734 39.3636 56.668 39.4319 56.6 39.5022C56.5264 39.9837 56.4595 40.4663 56.4 40.9499C56.334 40.9499 56.268 40.9499 56.2 40.9499C56.1835 40.6854 56.167 40.421 56.15 40.1485C56.1082 39.698 56.1082 39.698 56 39.2954C55.6158 38.9665 55.6158 38.9665 55.2 38.8817C55.2 38.6087 55.2 38.3357 55.2 38.0544Z" fill="#E20114"/>
<path d="M57.2 38.8818C57.398 38.9501 57.596 39.0183 57.8 39.0887C57.701 39.2422 57.701 39.2422 57.6 39.3989C57.3128 40.1415 57.3743 40.7731 57.4 41.5705C57.268 41.5705 57.136 41.5705 57 41.5705C56.9557 41.2003 56.9147 40.8296 56.875 40.4588C56.8518 40.2525 56.8286 40.0461 56.8047 39.8335C56.8032 39.656 56.8016 39.4784 56.8 39.2955C56.932 39.159 57.064 39.0225 57.2 38.8818Z" fill="#DC3472"/>
<path d="M54.4 45.0864C54.8337 45.1911 55.1999 45.2932 55.6 45.5001C55.6 45.6366 55.6 45.7731 55.6 45.9137C55.072 45.9819 54.544 46.0502 54 46.1205C54.132 45.7793 54.264 45.438 54.4 45.0864Z" fill="#660000"/>
<path d="M57 42.8113C57.198 42.8795 57.396 42.9478 57.6 43.0181C57.575 43.4059 57.575 43.4059 57.4 43.8454C56.7875 44.1039 56.7875 44.1039 56.2 44.259C56.2 43.6386 56.2 43.6386 56.6 43.1861C56.732 43.0624 56.864 42.9387 57 42.8113Z" fill="#950000"/>
</g>
<defs>
<clipPath id="clip0_5002_3688">
<rect width="88" height="91" fill="white"/>
</clipPath>
</defs>
</svg>
