<svg width="91" height="88" viewBox="0 0 91 88" fill="none" xmlns="http://www.w3.org/2000/svg">
<path d="M17.7735 1.37503C18.2753 1.6818 18.7392 2.03113 19.2064 2.38479C19.3321 2.47807 19.4578 2.57134 19.5873 2.66744C19.8219 2.84173 20.0561 3.01664 20.2896 3.19239C20.6331 3.44944 20.9801 3.70184 21.3281 3.95315C21.384 3.79784 21.44 3.64253 21.4975 3.48251C21.5736 3.27978 21.6497 3.07706 21.728 2.86819C21.8023 2.66679 21.8765 2.4654 21.953 2.2579C22.2361 1.67935 22.3615 1.51084 22.9278 1.20315C23.5145 1.13883 23.5145 1.13883 24.2208 1.13916C24.3498 1.13853 24.4788 1.1379 24.6117 1.13726C25.0372 1.13587 25.4626 1.1382 25.8881 1.14071C26.1843 1.1408 26.4804 1.14071 26.7766 1.14045C27.3969 1.14047 28.0172 1.14226 28.6376 1.14537C29.4325 1.14927 30.2273 1.14936 31.0222 1.1482C31.6336 1.14763 32.245 1.14877 32.8565 1.15046C33.1495 1.15112 33.4426 1.15132 33.7357 1.15105C34.1454 1.15098 34.5551 1.15315 34.9647 1.15594C35.1978 1.15674 35.4309 1.15753 35.6711 1.15834C36.217 1.20003 36.5225 1.24954 36.9688 1.5469C37.1994 1.99293 37.1745 2.39886 37.1889 2.88976C37.3255 7.12978 39.167 10.6912 42.323 13.5996C43.2421 14.3756 44.2322 15.0392 45.236 15.7081C46.5282 16.576 47.707 17.5475 48.877 18.5625C49.0438 18.7068 49.2106 18.851 49.3824 18.9996C49.6663 19.2464 49.9495 19.494 50.2315 19.7428C50.5849 20.0493 50.9421 20.3496 51.3028 20.6479C51.4145 20.7403 51.5261 20.8327 51.6412 20.928C51.7685 21.0332 51.7685 21.0332 51.8985 21.1407C51.9549 20.9439 52.0113 20.7471 52.0695 20.5444C52.2803 19.8103 52.4922 19.0765 52.7045 18.3429C52.796 18.026 52.8871 17.7092 52.978 17.3922C53.1091 16.935 53.2414 16.4781 53.3738 16.0213C53.4138 15.8809 53.4538 15.7405 53.495 15.5958C54.1038 13.508 54.1038 13.508 54.5645 13.0625C55.1345 12.9752 55.1345 12.9752 55.8086 13.0625C56.2334 13.4127 56.5165 13.8369 56.8195 14.2871C56.9012 14.4015 56.9828 14.5158 57.067 14.6336C57.3037 14.9666 57.5343 15.3029 57.7637 15.6407C57.9017 15.8408 58.0399 16.0409 58.1782 16.2409C58.276 16.3831 58.3738 16.5254 58.4746 16.6719C59.8169 15.8857 61.0843 15.0199 62.3512 14.1263C63.4817 13.3313 64.6294 12.5636 65.7876 11.8068C66.4462 11.3754 67.0976 10.9392 67.7342 10.4777C67.8464 10.397 67.9586 10.3163 68.0742 10.2331C68.2803 10.0837 68.4849 9.93237 68.6876 9.77865C69.1392 9.45248 69.484 9.28312 70.0406 9.18258C70.9086 9.34733 71.2779 9.91239 71.7783 10.5791C71.8823 10.7357 71.9864 10.8923 72.0935 11.0537C72.5141 11.6833 72.9406 12.3012 73.3974 12.9068C73.4868 13.027 73.5763 13.1472 73.6684 13.2711C73.8444 13.507 74.0226 13.7415 74.2032 13.9741C74.6032 14.5162 74.8168 14.9134 74.972 15.5708C74.7495 16.4644 74.1581 16.7452 73.3821 17.2198C73.2469 17.3069 73.1118 17.3941 72.9725 17.4839C72.7076 17.6542 72.4413 17.8223 72.1733 17.9879C71.8465 18.1926 71.5316 18.4077 71.2153 18.627C70.7383 18.9063 70.7383 18.9063 70.0607 18.874C69.4942 18.7344 69.4942 18.7344 69.3164 18.5625C69.2053 18.0254 69.2053 18.0254 69.3164 17.3594C69.7924 16.8777 70.3445 16.5245 70.916 16.1563C71.1572 15.9886 71.3979 15.8204 71.6381 15.6514C71.8965 15.4759 71.8965 15.4759 72.1602 15.2969C71.5053 14.0638 70.7073 12.9677 69.8496 11.8594C68.5251 12.6611 67.2299 13.4949 65.9506 14.3623C65.7754 14.4806 65.6002 14.5989 65.4197 14.7208C64.5483 15.3095 63.678 15.8997 62.8076 16.49C62.6501 16.5967 62.4925 16.7035 62.3302 16.8135C62.0363 17.0129 61.7425 17.2124 61.4489 17.4121C61.1823 17.5932 60.9148 17.7731 60.6465 17.9517C60.3735 18.1365 60.1047 18.3271 59.8394 18.5221C59.7038 18.6183 59.5683 18.7145 59.4286 18.8136C59.3092 18.9014 59.1898 18.9893 59.0668 19.0797C58.427 19.3426 58.0674 19.2803 57.4082 19.0782C57.0068 18.6898 56.7299 18.2492 56.4418 17.7783C56.3626 17.6562 56.2835 17.534 56.2019 17.4081C56.008 17.1076 55.8189 16.8041 55.6309 16.5C55.2796 17.7113 54.9285 18.9226 54.5775 20.1339C54.4581 20.546 54.3386 20.9582 54.2191 21.3703C54.0474 21.9624 53.8758 22.5546 53.7043 23.1468C53.6508 23.3312 53.5972 23.5156 53.5421 23.7056C53.4923 23.8776 53.4425 24.0496 53.3912 24.2268C53.3474 24.378 53.3036 24.5291 53.2584 24.6849C53.1553 25.049 53.0596 25.415 52.9649 25.7813C56.1907 26.0082 59.4166 26.235 62.7403 26.4688C62.271 25.7882 61.8018 25.1075 61.3184 24.4063C60.9629 23.8907 60.9629 23.8907 60.9476 23.4046C61.2277 22.6135 61.7513 22.3254 62.4514 21.8711C62.5733 21.7885 62.6952 21.7058 62.8208 21.6207C64.4636 20.5111 64.4636 20.5111 65.4063 20.625C65.7506 20.9151 65.7506 20.9151 65.9395 21.3125C65.9072 21.9077 65.8136 22.1228 65.3681 22.5445C65.2084 22.6591 65.0487 22.7736 64.8842 22.8916C64.2311 23.3628 64.2311 23.3628 63.6289 23.8907C63.7639 24.0668 63.8988 24.2429 64.0379 24.4244C64.2163 24.6583 64.3947 24.8921 64.5731 25.126C64.6619 25.2418 64.7507 25.3575 64.8422 25.4768C66.1284 27.1655 66.1284 27.1655 66.0728 27.9727C65.9395 28.5313 65.9395 28.5313 65.7617 28.7032C63.4627 28.8668 61.1179 28.5554 58.8301 28.3594C59.0432 28.6279 59.0432 28.6279 59.2606 28.9019C59.6725 29.4213 60.0833 29.9416 60.4936 30.4622C60.889 30.9638 61.2867 31.4634 61.6877 31.9607C65.4141 36.6174 68.2526 41.8714 69.8516 47.5568C69.8906 47.6916 69.9296 47.8264 69.9697 47.9652C70.019 48.1427 70.019 48.1427 70.0692 48.3238C70.2305 48.6999 70.4168 48.8961 70.7383 49.1563C71.1862 49.3353 71.1862 49.3353 71.6825 49.4785C72.8552 49.8765 73.5732 50.3005 74.1708 51.3907C74.8363 52.822 74.7776 54.1724 74.277 55.6425C73.9017 56.5445 73.2399 57.1653 72.3379 57.5782C71.7446 57.7647 71.1498 57.9325 70.5474 58.0891C70.0178 58.2689 69.8442 58.3759 69.4942 58.7813C69.336 59.1113 69.336 59.1113 69.2262 59.4809C69.18 59.6193 69.1339 59.7578 69.0864 59.9004C69.0376 60.0487 68.9889 60.1969 68.9387 60.3496C66.2909 67.9946 59.7599 73.5214 52.4914 77.0732C51.3703 77.6044 50.2327 78.0977 49.088 78.5791C48.8898 78.6641 48.6915 78.7491 48.4872 78.8366C48.2055 78.9521 48.2055 78.9521 47.9182 79.0699C47.7517 79.1391 47.5851 79.2083 47.4136 79.2795C46.8336 79.429 46.4347 79.3659 45.8555 79.2344C45.4652 78.3118 45.4652 78.3118 45.6129 77.8508C45.9322 77.4097 46.2243 77.3005 46.7372 77.0954C46.9183 77.0212 47.0993 76.947 47.2859 76.8706C47.481 76.7928 47.6762 76.715 47.8772 76.6348C48.2853 76.466 48.693 76.2966 49.1005 76.1266C49.3038 76.042 49.5071 75.9575 49.7165 75.8703C53.2839 74.3675 56.6106 72.4421 59.541 69.9532C59.7331 69.7983 59.7331 69.7983 59.9291 69.6403C60.7764 68.9495 61.5014 68.1999 62.2071 67.375C62.3205 67.2461 62.4339 67.1171 62.5507 66.9843C64.6041 64.5921 66.0797 61.8431 67.0663 58.8947C67.4647 57.7655 68.0397 56.8951 69.0943 56.2461C69.5897 56.0618 70.0722 55.921 70.5828 55.7842C71.2828 55.5908 71.7132 55.4107 72.1602 54.8282C72.4916 54.1871 72.4104 53.4653 72.3379 52.7657C72.0729 52.0865 71.8192 51.8228 71.1424 51.5115C70.7667 51.3655 70.3899 51.222 70.0121 51.0811C68.8533 50.62 68.3746 49.9926 67.8889 48.9003C67.6144 48.2119 67.4298 47.5066 67.2392 46.793C65.4109 40.3476 61.3067 34.6062 56.875 29.5625C56.7957 29.4476 56.7164 29.3327 56.6347 29.2143C56.1852 28.617 55.8531 28.2511 55.1065 28.0374C54.4951 27.9556 53.8922 27.9079 53.2759 27.876C52.8601 27.8482 52.4445 27.8185 52.029 27.7867C51.7547 27.7715 51.7547 27.7715 51.4748 27.756C51.0098 27.6719 51.0098 27.6719 50.6781 27.4492C50.3684 26.9991 50.4859 26.5798 50.5523 26.0646C50.6543 25.6094 50.6543 25.6094 50.8619 25.122C51.0882 24.5529 51.2144 24.1587 51.1875 23.5469C50.6753 22.8277 50.0696 22.2908 49.3749 21.7392C49.0299 21.4646 48.6948 21.1809 48.3597 20.8949C47.6452 20.2892 46.9209 19.6961 46.1887 19.1104C46.0581 19.0058 45.9275 18.9013 45.7929 18.7936C44.9878 18.1558 44.1674 17.5558 43.3117 16.9834C39.4372 14.3783 36.356 10.7169 35.2845 6.20632C35.1145 5.22974 35.0648 4.25416 35.0137 3.26565C33.958 3.26565 32.9022 3.26565 31.8145 3.26565C31.836 3.50779 31.8575 3.74992 31.8797 3.99939C32.1526 7.13928 32.3474 10.2818 32.5254 13.4278C32.5331 13.5628 32.5407 13.6977 32.5486 13.8368C32.6567 15.7493 32.761 17.6619 32.8618 19.5748C32.8797 19.915 32.8977 20.2553 32.9158 20.5955C33.1892 25.7963 33.2713 30.9928 33.2799 36.1995C33.2808 36.6535 33.2822 37.1076 33.2837 37.5616C33.2923 40.6117 33.2601 43.6524 33.0711 46.6977C33.0637 46.8168 33.0564 46.9359 33.0488 47.0586C32.4328 56.7467 32.4328 56.7467 30.0371 58.9532C29.6852 59.0775 29.3299 59.1936 28.9707 59.2969C28.9726 59.4325 28.9744 59.5681 28.9764 59.7079C29.1998 78.9137 29.1998 78.9137 27.1934 84.7344C29.95 84.7344 32.7067 84.7344 35.5469 84.7344C35.6642 84.4508 35.7815 84.1672 35.9024 83.875C37.0185 82.4901 38.6796 80.6254 40.4721 80.1334C40.8789 80.0938 40.8789 80.0938 41.2788 80.1797C41.5899 80.4375 41.5899 80.4375 41.753 81.0069C41.7676 81.6407 41.7676 81.6407 41.4073 82.0542C41.2366 82.173 41.0659 82.2917 40.89 82.4141C40.7093 82.5459 40.5285 82.6777 40.3423 82.8136C40.08 82.9987 40.08 82.9987 39.8125 83.1875C38.5703 84.12 37.7045 85.2277 36.791 86.4532C36.4242 86.8079 35.6384 86.6521 35.1332 86.6527C34.9004 86.654 34.9004 86.654 34.6629 86.6553C34.1471 86.6578 33.6313 86.659 33.1155 86.6599C32.7584 86.6609 32.4013 86.6619 32.0442 86.6629C31.2945 86.6647 30.5447 86.6657 29.7949 86.6663C28.8328 86.6673 27.8708 86.6714 26.9087 86.6763C26.1707 86.6795 25.4328 86.6804 24.6948 86.6806C24.3401 86.6812 23.9853 86.6826 23.6306 86.6848C23.1348 86.6877 22.6391 86.6874 22.1433 86.6863C21.9959 86.6879 21.8486 86.6895 21.6967 86.6911C20.7087 86.6841 20.7087 86.6841 20.3141 86.4295C19.9822 85.9678 20.0088 85.6101 19.9977 85.0504C19.992 84.8279 19.9863 84.6053 19.9805 84.3761C19.9768 84.1281 19.9731 83.8802 19.9695 83.6323C19.9638 83.3707 19.9578 83.1091 19.9517 82.8475C19.9388 82.2799 19.9276 81.7124 19.9176 81.1448C19.9016 80.2314 19.8819 79.318 19.8617 78.4046C19.8332 77.096 19.8063 75.7875 19.7805 74.4789C19.7167 71.2441 19.6437 68.0094 19.5707 64.7747C19.5591 64.2619 19.5476 63.749 19.5362 63.2361C19.4 57.1445 19.2156 51.0558 18.9843 44.9668C18.9691 44.5637 18.9539 44.1605 18.9387 43.7574C18.8182 40.5699 18.6935 37.3827 18.544 34.1963C18.4972 33.1818 18.4624 32.1676 18.44 31.1524C18.4361 31.0332 18.4322 30.914 18.4283 30.7912C18.4251 30.3058 18.4349 29.9797 18.7128 29.5672C19.2256 29.2701 19.7014 29.4501 20.2617 29.5625C20.6311 30.3013 20.6859 30.996 20.7144 31.8027C20.7205 31.941 20.7266 32.0794 20.733 32.222C20.7531 32.6856 20.7709 33.1493 20.7887 33.613C20.8026 33.9458 20.8165 34.2786 20.8306 34.6114C20.8685 35.5196 20.9042 36.4278 20.9393 37.3361C20.9617 37.9121 20.9846 38.488 21.0076 39.0639C21.6157 54.2827 21.9566 69.5068 22.2168 84.7344C23.1553 84.7344 24.0937 84.7344 25.0606 84.7344C25.5289 81.3204 25.9774 77.9093 26.2603 74.4756C26.2707 74.3511 26.2811 74.2266 26.2918 74.0983C26.5685 70.7527 26.6887 67.4122 26.69 64.0564C26.6906 63.6951 26.6912 63.3339 26.6918 62.9726C26.6929 62.2182 26.6932 61.4638 26.6931 60.7094C26.6931 59.9545 26.6943 59.1995 26.6968 58.4446C26.7134 53.219 26.598 48.015 26.3047 42.7969C26.2978 42.672 26.2909 42.5471 26.2837 42.4184C26.1991 40.893 26.1013 39.3688 25.9937 37.8448C25.979 37.6349 25.9644 37.425 25.9493 37.2087C25.3292 28.3906 24.3964 19.6001 23.2832 10.8282C23.2586 10.6344 23.2341 10.4407 23.2088 10.241C23.1372 9.68152 23.0644 9.12218 22.9909 8.56289C22.9584 8.30982 22.9584 8.30982 22.9253 8.05163C22.8946 7.82219 22.8946 7.82219 22.8633 7.58812C22.8457 7.4539 22.828 7.31968 22.8098 7.18139C22.7802 6.87196 22.7802 6.87196 22.5723 6.70315C22.3053 6.72974 22.3053 6.72974 22.0328 6.75686C21.0583 6.68258 20.57 6.25443 19.8285 5.6719C19.6985 5.57353 19.5685 5.47516 19.4345 5.3738C19.1156 5.13192 18.7991 4.88759 18.4844 4.64065C18.5067 4.73419 18.529 4.82773 18.552 4.9241C18.8276 6.15563 18.9723 7.38904 19.0945 8.64275C19.1285 8.98902 19.1646 9.33504 19.2009 9.68109C19.4992 12.6764 19.4992 12.6764 19.3731 13.9219C19.0176 14.2657 19.0176 14.2657 18.3955 14.3086C17.7735 14.2657 17.7735 14.2657 17.418 13.9219C17.34 13.5338 17.34 13.5338 17.2916 13.041C17.2627 12.7618 17.2627 12.7618 17.2332 12.477C17.2135 12.2732 17.1939 12.0694 17.1736 11.8594C17.1288 11.4232 17.0837 10.987 17.0382 10.5509C17.0264 10.436 17.0145 10.321 17.0023 10.2027C16.9096 9.31526 16.8038 8.42978 16.6925 7.5444C16.6762 7.41418 16.6599 7.28395 16.6431 7.14979C16.5785 6.63499 16.5137 6.12022 16.4472 5.60564C16.0999 2.9103 16.0999 2.9103 16.1738 1.71878C16.6727 1.11132 17.0461 1.14826 17.7735 1.37503ZM24.3496 3.26565C24.4378 3.9301 24.526 4.59455 24.6169 5.27914C26.6149 20.4149 28.1831 35.5692 28.6782 50.8292C28.7458 52.9094 28.8259 54.9859 28.9707 57.0625C31.6119 54.6854 31.0857 47.3774 31.2146 44.1934C31.5999 32.6189 30.9426 21.0359 30.2377 9.48461C30.2141 9.09613 30.1908 8.70763 30.1676 8.31913C30.1288 7.67056 30.0891 7.02204 30.0488 6.37356C30.0337 6.12925 30.0189 5.88492 30.0044 5.64058C29.9843 5.30509 29.9632 4.96966 29.942 4.63423C29.9303 4.44397 29.9186 4.2537 29.9066 4.05767C29.8874 3.61285 29.8874 3.61285 29.6817 3.26565C27.9221 3.26565 26.1625 3.26565 24.3496 3.26565Z" fill="#322554"/>
<path d="M55.6309 28.0156C55.8679 28.0108 56.1049 28.0075 56.3418 28.0048C56.4738 28.0028 56.6058 28.0008 56.7417 27.9988C56.9837 28.0071 56.9837 28.0071 57.2305 28.0156C57.4626 28.0213 57.6947 28.0271 57.9338 28.033C58.6702 28.13 58.9727 28.4043 59.4182 28.9618C59.4991 29.0714 59.5799 29.181 59.6633 29.2939C59.7525 29.4083 59.8417 29.5228 59.9336 29.6407C60.2217 30.0128 60.5034 30.389 60.7852 30.7656C60.9789 31.018 61.1728 31.2702 61.367 31.5222C63.4016 34.184 65.2399 36.9417 66.8282 39.8749C66.8916 39.9918 66.955 40.1086 67.0204 40.2289C68.2389 42.5082 69.1017 44.9407 69.8124 47.41C69.8566 47.5628 69.9007 47.7157 69.9462 47.8732C69.9835 48.0088 70.0209 48.1444 70.0595 48.2841C70.2235 48.6855 70.395 48.8839 70.7383 49.1562C71.1863 49.3352 71.1863 49.3352 71.6825 49.4785C72.8552 49.8764 73.5733 50.3004 74.1708 51.3906C74.8363 52.8219 74.7776 54.1724 74.277 55.6425C73.9017 56.5444 73.2399 57.1652 72.3379 57.5781C71.7447 57.7646 71.1499 57.9324 70.5474 58.089C70.0178 58.2688 69.8442 58.3759 69.4942 58.7812C69.336 59.1112 69.336 59.1112 69.2262 59.4808C69.1801 59.6192 69.1339 59.7577 69.0864 59.9003C69.0377 60.0486 68.989 60.1968 68.9388 60.3495C66.291 67.9945 59.7599 73.5213 52.4914 77.0731C51.3704 77.6043 50.2328 78.0976 49.0881 78.579C48.8898 78.664 48.6915 78.749 48.4872 78.8365C48.2994 78.9135 48.1117 78.9905 47.9182 79.0698C47.7517 79.139 47.5852 79.2082 47.4136 79.2794C46.8337 79.4289 46.4347 79.3659 45.8555 79.2343C45.4652 78.3117 45.4652 78.3117 45.613 77.8507C45.9322 77.4096 46.2243 77.3004 46.7372 77.0953C46.9183 77.0211 47.0994 76.9469 47.2859 76.8705C47.481 76.7927 47.6762 76.7149 47.8772 76.6347C48.2853 76.4659 48.693 76.2965 49.1006 76.1265C49.4055 75.9996 49.4055 75.9996 49.7166 75.8702C53.284 74.3674 56.6106 72.442 59.5411 69.9531C59.6691 69.8498 59.7972 69.7466 59.9292 69.6402C60.7764 68.9495 61.5014 68.1998 62.2071 67.3749C62.3205 67.246 62.4339 67.117 62.5507 66.9842C64.6042 64.592 66.0797 61.843 67.0663 58.8946C67.4647 57.7654 68.0397 56.895 69.0943 56.246C69.5897 56.0618 70.0722 55.921 70.5828 55.7841C71.2828 55.5907 71.7132 55.4106 72.1602 54.8281C72.4917 54.187 72.4104 53.4652 72.3379 52.7656C72.0729 52.0864 71.8192 51.8227 71.1424 51.5114C70.7667 51.3654 70.3899 51.2219 70.0121 51.0811C68.8533 50.6199 68.3746 49.9925 67.8889 48.9002C67.6144 48.2118 67.4298 47.5065 67.2392 46.7929C65.2848 39.9026 60.7404 33.6966 55.8468 28.4385C55.6309 28.1874 55.6309 28.1874 55.6309 28.0156Z" fill="#322554"/>
<path d="M70.5605 9.28127C71.2051 9.79151 71.6458 10.3796 72.0935 11.0537C72.5141 11.6833 72.9405 12.3011 73.3973 12.9068C73.4868 13.027 73.5762 13.1472 73.6684 13.2711C73.8444 13.507 74.0226 13.7415 74.2031 13.9741C74.6031 14.5162 74.8168 14.9134 74.972 15.5708C74.7494 16.4644 74.158 16.7452 73.3821 17.2197C73.2469 17.3069 73.1117 17.3941 72.9724 17.4839C72.7076 17.6542 72.4412 17.8222 72.1733 17.9879C71.8465 18.1926 71.5315 18.4077 71.2152 18.627C70.7383 18.9063 70.7383 18.9063 70.0607 18.874C69.4941 18.7344 69.4941 18.7344 69.3164 18.5625C69.2053 18.0254 69.2053 18.0254 69.3164 17.3594C69.7923 16.8777 70.3444 16.5245 70.916 16.1563C71.1571 15.9886 71.3979 15.8203 71.638 15.6514C71.8103 15.5344 71.9826 15.4174 72.1601 15.2969C71.5052 14.0638 70.7072 12.9677 69.8496 11.8594C68.525 12.6611 67.2299 13.4949 65.9505 14.3623C65.7754 14.4806 65.6002 14.5989 65.4197 14.7208C64.5482 15.3094 63.6779 15.8997 62.8076 16.4899C62.65 16.5967 62.4925 16.7035 62.3302 16.8135C62.0363 17.0128 61.7425 17.2124 61.4489 17.4121C61.1823 17.5932 60.9148 17.7731 60.6465 17.9517C60.3735 18.1365 60.1046 18.3271 59.8394 18.5221C59.636 18.6664 59.636 18.6664 59.4285 18.8136C59.3091 18.9014 59.1897 18.9893 59.0667 19.0797C58.4269 19.3426 58.0674 19.2803 57.4082 19.0781C57.0067 18.6898 56.7298 18.2492 56.4418 17.7783C56.3626 17.6561 56.2834 17.534 56.2019 17.4081C56.0079 17.1075 55.8189 16.8041 55.6308 16.5C55.2796 17.7113 54.9285 18.9226 54.5775 20.1339C54.4581 20.546 54.3386 20.9581 54.2191 21.3703C54.0474 21.9624 53.8758 22.5546 53.7042 23.1467C53.624 23.4234 53.624 23.4234 53.5421 23.7056C53.4923 23.8776 53.4425 24.0496 53.3912 24.2268C53.3473 24.378 53.3035 24.5291 53.2584 24.6848C53.1553 25.049 53.0595 25.415 52.9648 25.7813C56.1907 26.0081 59.4166 26.235 62.7402 26.4688C62.271 25.7881 61.8018 25.1075 61.3183 24.4063C60.9629 23.8906 60.9629 23.8906 60.9476 23.4046C61.2277 22.6135 61.7512 22.3254 62.4514 21.8711C62.5733 21.7885 62.6952 21.7058 62.8208 21.6207C64.4636 20.5111 64.4636 20.5111 65.4062 20.625C65.7506 20.9151 65.7506 20.9151 65.9394 21.3125C65.9072 21.9077 65.8136 22.1228 65.3681 22.5445C65.2084 22.6591 65.0487 22.7736 64.8841 22.8916C64.2311 23.3628 64.2311 23.3628 63.6289 23.8906C63.8313 24.1549 63.8313 24.1549 64.0378 24.4244C64.2163 24.6582 64.3947 24.8921 64.5731 25.126C64.6619 25.2418 64.7507 25.3575 64.8421 25.4768C66.1284 27.1655 66.1284 27.1655 66.0727 27.9727C65.9394 28.5313 65.9394 28.5313 65.7617 28.7031C64.0739 28.7861 62.3895 28.6608 60.7088 28.5212C60.475 28.5025 60.2413 28.4839 60.0004 28.4646C59.5108 28.4255 59.0212 28.3857 58.5317 28.3454C57.908 28.2941 57.2841 28.2438 56.6603 28.194C56.0584 28.1459 55.4565 28.0972 54.8546 28.0485C54.6326 28.0306 54.4106 28.0127 54.1819 27.9943C53.5983 27.9462 53.015 27.8953 52.4316 27.8438C52.284 27.8329 52.1364 27.8221 51.9843 27.8109C51.4736 27.7659 51.0876 27.7207 50.6526 27.4477C50.2551 26.7897 50.5694 25.9371 50.751 25.2363C50.8671 24.8497 50.9926 24.467 51.1208 24.084C51.5686 22.6972 51.9619 21.3025 52.3317 19.8945C52.7468 18.3235 53.1785 16.7585 53.6424 15.2002C53.694 15.0244 53.7455 14.8485 53.7986 14.6673C53.8472 14.5062 53.8958 14.345 53.9458 14.179C53.9882 14.0376 54.0305 13.8961 54.0742 13.7503C54.209 13.4063 54.209 13.4063 54.5644 13.0625C55.1455 12.9645 55.1455 12.9645 55.8086 13.0625C56.2324 13.4139 56.5164 13.8368 56.8194 14.2871C56.9011 14.4015 56.9828 14.5158 57.067 14.6336C57.3036 14.9666 57.5343 15.3029 57.7637 15.6406C57.9017 15.8408 58.0398 16.0409 58.1781 16.2409C58.276 16.3831 58.3738 16.5253 58.4746 16.6719C59.8168 15.8857 61.0842 15.0199 62.3512 14.1263C63.4817 13.3313 64.6293 12.5636 65.7875 11.8068C66.4461 11.3753 67.0976 10.9392 67.7341 10.4777C67.9024 10.3566 67.9024 10.3566 68.0742 10.2331C68.2803 10.0837 68.4849 9.93236 68.6876 9.77864C69.3282 9.31596 69.7659 9.13045 70.5605 9.28127Z" fill="#E9296A"/>
<path d="M46.7101 29.1382C47.8256 29.7105 48.7595 30.0054 50.0086 30.1694C50.6742 30.284 51.0536 30.4879 51.5429 30.9375C51.8265 31.3785 52.043 31.8356 52.2538 32.3125C52.6019 33.0277 52.9841 33.5902 53.498 34.2031C53.8711 35.2857 53.6824 36.2464 53.3203 37.2969C53.4082 37.3571 53.4962 37.4174 53.5869 37.4795C54.0007 37.9964 53.9327 38.3809 53.8535 39.0156C53.5438 39.4969 53.3271 39.7983 52.7836 40.024C52.3283 40.2759 52.2647 40.4893 52.0872 40.9599C51.7743 41.6823 51.4987 42.1484 50.832 42.625C50.5415 42.7073 50.2486 42.7819 49.9544 42.8506C49.046 43.0774 48.7212 43.4383 48.2194 44.1833C47.7655 44.8358 47.1255 45.2411 46.3886 45.5469C45.1916 45.7162 44.17 45.5559 43.1894 44.8594C42.5629 44.2905 42.109 43.7987 41.9452 42.9687C41.762 42.9581 41.5787 42.9475 41.3898 42.9365C40.6018 42.7767 40.1488 42.5193 39.6347 41.9375C39.3923 41.5729 39.182 41.2021 38.9765 40.8169C38.6473 40.208 38.2715 39.6286 37.899 39.0438C37.1543 37.7812 37.5128 36.2948 37.8129 34.9443C37.8409 34.8042 37.8688 34.6641 37.8976 34.5197C38.1367 33.4199 38.5474 32.576 39.457 31.8398C39.9305 31.4059 40.1203 31.0157 40.3345 30.4219C40.7316 29.3595 41.3745 28.8594 42.3563 28.2949C44.0581 27.9122 45.229 28.3573 46.7101 29.1382ZM42.3007 30.9375C42.1852 31.2065 42.0787 31.4792 41.9786 31.7539C41.7203 32.4572 41.4516 32.8262 40.8677 33.3115C39.935 34.1429 39.7929 35.0846 39.6347 36.2656C39.6084 36.4132 39.582 36.5607 39.5549 36.7128C39.4115 38.1086 40.2575 39.1284 41.0566 40.2187C41.1885 40.4201 41.1885 40.4201 41.3232 40.6256C41.567 40.9382 41.567 40.9382 41.9529 40.9734C42.0787 40.9654 42.2045 40.9574 42.334 40.9492C42.5577 40.935 42.7813 40.9208 43.0117 40.9062C43.0763 41.0327 43.1409 41.1593 43.2074 41.2896C43.9389 42.6768 43.9389 42.6768 45.1445 43.6562C45.7269 43.6282 45.9736 43.5372 46.406 43.1534C46.5212 43.018 46.6365 42.8826 46.7552 42.7431C48.0907 41.1959 48.0907 41.1959 48.9769 41.1103C49.3971 41.0469 49.3971 41.0469 49.7656 40.9062C50.1248 40.3534 50.1248 40.3534 50.2988 39.7031C50.4765 39.3594 50.6542 39.0156 50.832 38.6719C51.0044 38.1716 51.0144 37.9074 50.9875 37.3935C50.9748 36.7034 51.0993 36.4628 51.5429 35.9219C51.5239 35.0566 51.2026 34.6827 50.6542 34.0312C50.4564 33.6347 50.28 33.2339 50.1085 32.8261C49.9538 32.4554 49.9538 32.4554 49.5878 32.1406C49.1789 32.0586 48.7673 31.9889 48.3548 31.9258C47.0698 31.7072 46.0786 31.2581 44.9667 30.5937C43.9298 30.0443 43.1235 30.058 42.3007 30.9375Z" fill="#E9296A"/>
<path d="M54.831 58.2764C55.2448 59.06 55.2079 59.8099 55.0976 60.6719C54.7354 61.5384 54.1156 62.0278 53.2398 62.4081C50.0129 63.6197 46.2189 63.0746 42.8371 62.8862C42.2149 62.8521 41.5926 62.8216 40.9702 62.7911C40.5734 62.7695 40.1766 62.7477 39.7799 62.7256C39.5944 62.717 39.4089 62.7084 39.2178 62.6995C39.0467 62.6893 38.8756 62.679 38.6993 62.6684C38.474 62.6563 38.474 62.6563 38.2441 62.6441C37.7763 62.5454 37.6088 62.4151 37.3242 62.0469C37.2485 61.5393 37.2485 61.5393 37.3242 61.0156C39.1526 58.7066 43.489 57.323 46.2998 56.8369C49.0675 56.497 52.5633 56.4672 54.831 58.2764ZM41.7676 60.5C42.4182 60.8948 43.0644 60.9202 43.8115 60.9512C44.0146 60.9606 44.0146 60.9606 44.2218 60.9702C45.5692 61.0245 46.9175 61.0395 48.266 61.0479C48.4772 61.0501 48.6885 61.0523 48.9061 61.0547C50.9449 61.0609 50.9449 61.0609 52.7982 60.3389C53.2034 60.0028 53.2034 60.0028 53.1426 59.4688C52.93 59.3872 52.7173 59.3057 52.4983 59.2217C52.3787 59.1758 52.2591 59.13 52.1359 59.0827C48.659 57.9975 44.8971 58.9689 41.7676 60.5Z" fill="#322554"/>
<path d="M51.0209 64.8184C51.6835 65.2412 52.1096 65.6262 52.4316 66.3438C52.5937 67.2406 52.5461 67.9889 52.0651 68.7822C51.8979 69.0057 51.7237 69.2243 51.543 69.4375C51.4168 69.5881 51.4168 69.5881 51.2882 69.7417C49.4739 71.6799 46.6079 72.7189 44.2249 73.8409C43.7813 74.0504 43.3397 74.2633 42.8986 74.4776C42.6661 74.5881 42.4335 74.6985 42.2008 74.8086C42.0063 74.9017 41.8118 74.9947 41.6114 75.0906C40.9745 75.3095 40.4838 75.3339 39.8125 75.2813C39.4459 75.0342 39.4459 75.0342 39.2793 74.5938C39.3978 73.4975 39.826 72.5528 40.3679 71.5967C40.4389 71.4696 40.51 71.3425 40.5831 71.2116C41.1719 70.1838 41.8456 69.2826 42.6562 68.4063C42.7802 68.264 42.9041 68.1218 43.0319 67.9752C44.9984 65.7662 47.818 63.2417 51.0209 64.8184ZM43.9094 70.0377C43.379 70.6649 42.9176 71.3263 42.4785 72.0156C42.5958 72.0724 42.7131 72.1291 42.834 72.1875C43.5639 71.9286 44.2562 71.5801 44.9557 71.2529C45.1496 71.1653 45.3436 71.0777 45.5434 70.9874C47.4832 70.0869 49.1453 69.027 50.4766 67.375C50.2338 66.8499 50.2338 66.8499 49.799 66.4727C47.5037 65.7117 45.2249 68.5962 43.9094 70.0377Z" fill="#322554"/>
<path d="M51.6651 49.9834C51.8441 50.0657 51.8441 50.0657 52.0267 50.1496C52.8184 50.5455 53.2503 50.9524 53.6757 51.7344C53.8451 52.4005 53.7501 52.9656 53.4314 53.5821C51.4732 55.2051 48.4669 55.1349 46.0332 55C43.6533 54.8195 41.2967 53.8039 39.2793 52.5938C38.9238 52.0782 38.9238 52.0782 38.921 51.5746C39.1608 50.8738 39.5666 50.6614 40.2124 50.3379C40.3235 50.2797 40.4347 50.2214 40.5492 50.1613C44.0476 48.3915 48.1153 48.3197 51.6651 49.9834ZM42.3008 51.7344C42.5624 51.8728 42.8256 52.0083 43.0894 52.1426C43.2358 52.2184 43.3823 52.2942 43.5331 52.3722C44.8634 52.913 46.1803 52.9989 47.6106 52.9913C47.782 52.991 47.9534 52.9908 48.13 52.9906C49.3275 52.9749 50.4218 52.8577 51.5429 52.4219C51.0773 51.8739 50.5436 51.6977 49.8656 51.4551C49.6642 51.382 49.4628 51.3089 49.2553 51.2336C47.1683 50.5331 44.1857 50.5192 42.3008 51.7344Z" fill="#322554"/>
<path d="M60.2519 58.6094C61.1241 59.0312 61.5008 59.4536 61.8515 60.3282C62.3919 62.5502 61.8493 64.7142 60.7566 66.6983C59.8642 68.0762 58.6553 69.1381 57.3637 70.1573C57.2096 70.2816 57.2096 70.2816 57.0523 70.4084C56.5645 70.7777 56.2033 70.978 55.5891 71.0791C55.0976 70.9844 55.0976 70.9844 54.7678 70.7051C53.7451 68.6529 54.7796 64.54 55.419 62.4383C56.0367 60.7954 56.9559 59.7206 58.4746 58.8028C59.1247 58.567 59.562 58.526 60.2519 58.6094ZM58.2913 61.4991C57.7126 62.1208 57.4711 62.8006 57.2304 63.5938C57.1926 63.7117 57.1548 63.8295 57.1159 63.951C56.7653 65.2291 56.7606 66.5763 56.6972 67.8907C58.2588 66.6887 59.4628 65.3519 59.8964 63.4219C59.9724 62.486 60.0281 61.5695 59.7187 60.6719C59.1007 60.6719 58.7341 61.1143 58.2913 61.4991Z" fill="#322554"/>
<path d="M57.5749 36.3193C58.923 36.3791 60.1175 37.6299 60.9962 38.5215C62.6917 40.4748 63.7515 42.6437 63.6796 45.2159C63.5904 46.1013 63.314 46.5595 62.6403 47.1475C61.8391 47.6839 61.2105 47.7115 60.252 47.6094C59.1875 47.2255 58.7246 46.6668 58.181 45.7134C56.9968 43.1909 56.3761 39.7279 56.6973 36.9531C57.0528 36.4375 57.0528 36.4375 57.5749 36.3193ZM58.8301 39.5312C59.1045 42.7497 59.1045 42.7497 60.6075 45.5469C60.7834 45.6036 60.9594 45.6603 61.1407 45.7188C61.4248 45.5105 61.4248 45.5105 61.6739 45.2031C61.8691 43.3324 60.798 41.6946 59.7014 40.2617C59.367 39.8429 59.367 39.8429 58.8301 39.5312Z" fill="#322554"/>
<path d="M64.2864 49.0139C64.7801 49.685 64.5899 50.6065 64.5175 51.3906C64.1388 53.3497 63.1039 54.9625 61.4961 56.2031C60.16 56.9773 58.982 57.5094 57.4082 57.4062C56.599 57.1634 55.9525 56.8608 55.4323 56.191C55.0462 55.3749 55.1375 54.4484 55.3809 53.6015C55.866 52.5308 56.7501 51.6985 57.5859 50.875C57.6888 50.7713 57.7916 50.6676 57.8976 50.5608C59.0802 49.4696 62.7376 47.981 64.2864 49.0139ZM58.7592 52.4601C58.1035 53.1638 57.3448 54.0291 57.2304 55C57.541 55.3708 57.541 55.3708 57.9081 55.382C59.3285 55.2814 60.3733 54.6259 61.2996 53.5934C61.9008 52.7773 62.2 52.0293 62.3847 51.0469C61.0087 50.9853 59.7573 51.5613 58.7592 52.4601Z" fill="#322554"/>
<path d="M19.5507 18.9063C20.3372 20.0471 20.1045 21.7061 20.1173 23.042C20.1207 23.26 20.1207 23.26 20.1243 23.4824C20.1248 23.8479 20.1059 24.2133 20.0839 24.5781C19.7285 24.9219 19.7285 24.9219 19.1064 24.9649C18.4843 24.9219 18.4843 24.9219 18.1289 24.5781C18.0531 24.1638 18.0531 24.1638 18.0101 23.6469C17.9944 23.4596 17.9788 23.2723 17.9626 23.0793C17.9478 22.8826 17.933 22.686 17.9178 22.4834C17.901 22.2901 17.8841 22.0968 17.8668 21.8976C17.7898 20.9309 17.7193 20.0266 17.9511 19.0781C18.476 18.6431 18.9164 18.6964 19.5507 18.9063Z" fill="#E9296A"/>
</svg>
