<svg width="88" height="91" viewBox="0 0 88 91" fill="none" xmlns="http://www.w3.org/2000/svg">
<g clip-path="url(#clip0_5002_3639)">
<path d="M44.1123 13.6759C44.2399 13.8039 44.3675 13.9319 44.4989 14.0637C44.4989 14.2002 44.4989 14.3367 44.4989 14.4774C44.6306 14.4774 44.7623 14.4774 44.898 14.4774C44.9477 14.3523 44.9973 14.2273 45.0485 14.0985C45.3366 13.5788 45.5887 13.3966 46.0828 13.0943C46.2205 13.0081 46.3581 12.922 46.4999 12.8333C48.0984 11.9508 50.5715 12.2019 52.2846 12.6742C56.1874 13.9246 61.5089 16.7301 63.6538 20.4767C64.1749 21.5443 64.3114 22.408 64.2915 23.6032C64.2913 23.8252 64.2913 23.8252 64.2911 24.0516C64.2858 24.7048 64.2551 25.2287 64.0545 25.8524C64.2825 25.9391 64.2825 25.9391 64.5152 26.0277C67.1736 27.0975 68.9633 28.6572 70.2249 31.3072C70.7014 32.5097 70.8906 33.5621 70.8765 34.8619C70.8752 35.1223 70.8739 35.3828 70.8726 35.6512C70.8391 36.4001 70.8391 36.4001 70.7042 37.0763C70.5839 37.6282 70.5839 37.6282 70.8469 37.9916C70.9513 38.0892 71.0557 38.1868 71.1633 38.2873C72.7595 40.011 73.1282 42.3868 73.0926 44.6785C72.9924 46.0861 72.5165 47.3085 71.981 48.5935C71.796 49.4011 71.9587 49.7477 72.2983 50.4896C73.2263 52.5609 73.3692 54.7464 72.7098 56.9526C72.0309 58.788 70.9358 60.4035 69.4423 61.6319C68.9948 61.7805 68.9948 61.7805 68.6441 61.8387C68.651 62.0387 68.658 62.2386 68.6651 62.4446C68.7245 65.4064 68.0353 67.4912 66.4116 69.9434C65.3334 71.061 64.1266 72.0259 62.6951 72.5933C61.8366 72.9523 61.4876 73.4379 60.9748 74.2171C59.6745 76.0655 57.6221 77.2902 55.474 77.7637C52.2356 78.0467 49.5116 77.6121 46.8935 75.4887C46.0017 74.6097 45.3108 73.8065 44.898 72.5933C44.7663 72.5933 44.6346 72.5933 44.4989 72.5933C44.4472 72.7452 44.3955 72.8972 44.3423 73.0538C43.4223 75.2305 41.2627 76.5912 39.211 77.4406C37.0318 78.1246 34.2167 78.1302 32.1271 77.1433C31.9794 77.0753 31.8318 77.0073 31.6796 76.9372C30.2304 76.1862 28.8105 75.0559 27.9631 73.6136C27.4421 72.8709 26.9832 72.6519 26.1781 72.283C23.8301 71.1373 22.3356 69.4146 21.2596 66.9664C20.6822 65.2453 20.6664 63.6386 20.7529 61.8387C20.533 61.7603 20.533 61.7603 20.3086 61.6804C18.3389 60.7718 17.3325 58.6352 16.5624 56.6683C15.9876 54.456 16.2678 52.1179 17.1611 50.0501C17.2928 49.8453 17.4245 49.6406 17.5602 49.4296C17.4842 48.6825 17.241 48.0376 16.9615 47.3485C16.0614 45.1224 16.0814 42.7408 16.9054 40.4807C17.3027 39.6031 17.8019 38.8307 18.3584 38.0546C18.4901 37.8499 18.6218 37.6451 18.7574 37.4342C18.7019 37.1558 18.6325 36.8804 18.5579 36.6069C18.3573 33.5799 18.8027 31.1287 20.7529 28.7478C22.0487 27.3182 23.6028 26.5601 25.3425 25.8524C25.2766 25.6476 25.2108 25.4429 25.1429 25.2319C24.9785 22.9266 25.1243 21.0447 26.5647 19.1954C27.3885 18.2929 28.3359 17.6382 29.3334 16.9592C29.5539 16.7982 29.774 16.6366 29.9936 16.4744C33.9401 13.5975 39.5828 10.4185 44.1123 13.6759ZM33.3243 16.9592C33.8781 17.3603 33.8781 17.3603 34.3252 17.5812C35.7312 18.3099 36.9077 19.3454 37.5148 20.8887C37.44 21.4575 37.44 21.4575 37.3153 21.9228C36.754 22.065 36.754 22.065 36.118 22.1296C35.6311 21.7135 35.2587 21.1856 34.8584 20.6819C34.0831 19.7769 33.5256 19.3058 32.3297 19.1631C30.8608 19.0929 29.8406 19.2308 28.7348 20.2683C27.931 21.0842 27.396 21.9278 27.2849 23.1056C27.2865 23.3903 27.2865 23.3903 27.2881 23.6808C27.287 23.8706 27.286 24.0604 27.2849 24.256C27.3453 24.8967 27.406 25.3028 27.737 25.8524C28.3754 26.115 28.3754 26.115 29.1339 26.2531C31.1097 26.7232 32.8917 27.6385 34.1225 29.3683C35.0249 31.0083 35.7484 32.4499 35.7438 34.3707C35.7446 34.7014 35.7446 34.7014 35.7454 35.0388C35.7189 35.5728 35.7189 35.5728 35.5193 35.7796C34.9332 35.8184 34.9332 35.8184 34.3221 35.7796C33.7926 35.2308 33.8394 34.877 33.7608 34.1122C33.4859 32.1242 32.6722 30.6069 31.1293 29.3683C29.5983 28.4097 28.1346 27.9233 26.3402 28.1274C24.3422 28.6429 22.7811 29.652 21.6018 31.4106C20.7737 32.8651 20.6014 34.3172 20.7529 35.9864C20.8829 36.4699 21.0154 36.9527 21.152 37.4342C21.1826 38.1631 21.0707 38.5329 20.6103 39.0863C20.4721 39.2364 20.334 39.3865 20.1917 39.5411C19.0386 40.8221 18.535 42.2007 18.4581 43.9489C18.5514 46.0089 19.2903 47.5161 20.6711 48.9821C22.0078 50.2261 23.2216 50.5868 24.9987 50.7828C25.542 50.8774 25.542 50.8774 25.9411 51.291C25.9785 51.9244 25.9785 51.9244 25.9411 52.5319C25.5944 52.8912 25.1415 52.7914 24.669 52.8033C22.6652 52.7836 21.0434 51.9309 19.3561 50.8774C18.5326 52.5102 18.291 53.9909 18.6873 55.8168C19.2856 57.7195 20.4322 58.9955 21.9502 60.1842C22.1025 60.2482 22.2547 60.3121 22.4116 60.3781C22.7484 60.5978 22.7484 60.5978 22.8715 61.152C22.9464 61.8247 22.9405 62.443 22.9105 63.1184C22.896 64.9946 23.4467 66.5501 24.5443 68.0433C24.6626 68.2094 24.7809 68.3754 24.9029 68.5466C25.8013 69.6313 27.0846 70.4865 28.4479 70.7577C28.6743 70.8175 28.9006 70.8772 29.1339 70.9387C29.2762 71.2794 29.4078 71.625 29.533 71.9728C30.7357 73.7365 32.4253 75.1063 34.5216 75.4887C37.0645 75.6799 39.1099 75.3523 41.1067 73.608C42.6624 72.0711 43.5016 70.2935 43.5954 68.0488C43.627 65.5926 42.8836 63.7416 41.2813 61.9292C40.3421 60.981 39.1937 60.4279 37.9638 59.9879C37.8156 59.9161 37.6675 59.8444 37.5148 59.7705C37.2207 58.7256 37.2207 58.7256 37.5148 58.116C38.398 57.7354 39.0887 58.1284 39.9328 58.4666C41.2824 59.0997 42.3742 60.0343 43.5012 61.0114C43.5152 57.885 43.5258 54.7586 43.5322 51.6322C43.5353 50.1804 43.5395 48.7287 43.5464 47.2769C43.553 45.8756 43.5565 44.4743 43.558 43.0729C43.5591 42.5386 43.5613 42.0043 43.5645 41.47C43.5689 40.7209 43.5694 39.9719 43.5692 39.2228C43.5713 39.0025 43.5735 38.7822 43.5757 38.5552C43.5705 37.2655 43.3921 36.3434 42.9026 35.1592C42.8779 34.9032 42.8532 34.6473 42.8277 34.3836C42.7551 33.6999 42.7551 33.6999 42.3289 33.2461C41.4369 32.7284 40.5017 32.5013 39.5103 32.2637C39.5018 31.7812 39.5021 31.2985 39.5103 30.816C39.8162 30.4989 40.0953 30.5742 40.5205 30.5704C41.4379 30.578 42.2234 30.7579 43.1021 31.0228C43.4628 30.2195 43.5532 29.5813 43.5592 28.6982C43.5617 28.4421 43.5643 28.186 43.5669 27.9221C43.5675 27.6442 43.568 27.3663 43.5682 27.0884C43.5695 26.8012 43.5709 26.5141 43.5723 26.2269C43.5747 25.6257 43.5754 25.0246 43.5752 24.4234C43.5751 23.6559 43.5806 22.8885 43.5874 22.121C43.5919 21.528 43.5927 20.9351 43.5925 20.3421C43.5929 20.0593 43.5947 19.7764 43.5978 19.4937C43.6296 17.3526 43.6296 17.3526 42.703 15.5114C41.674 14.6265 40.7501 14.5457 39.43 14.5913C37.2436 14.8742 35.2426 15.8818 33.3243 16.9592ZM46.4944 15.7183C45.7655 16.871 45.8178 17.9231 45.8373 19.2519C45.8382 19.4705 45.839 19.6891 45.8399 19.9143C45.8432 20.6097 45.8507 21.305 45.8584 22.0004C45.8614 22.473 45.8641 22.9456 45.8665 23.4182C45.8731 24.5743 45.8831 25.7304 45.8958 26.8864C46.0426 26.8291 46.1895 26.7718 46.3409 26.7128C46.6329 26.6004 46.6329 26.6004 46.9309 26.4857C47.2191 26.3742 47.2191 26.3742 47.5132 26.2603C49.6591 25.5129 51.8513 25.6391 53.8776 26.6796C55.5618 27.6888 55.5618 27.6888 55.8731 28.3342C56.2971 28.1259 56.6896 27.9079 57.0805 27.6378C58.3623 26.7521 59.5467 26.4035 61.0364 26.0907C61.6857 25.9179 61.6857 25.9179 61.9421 25.3789C62.2416 23.9426 62.2496 22.5538 61.5282 21.2579C60.8906 20.3775 60.0571 19.6425 59.0658 19.2342C57.6402 19.0485 56.3845 19.051 55.2035 19.958C54.5813 20.5463 54.0921 21.2095 53.5908 21.9099C53.279 22.1296 53.279 22.1296 52.6429 22.065C52.4577 22.0181 52.2725 21.9712 52.0817 21.9228C51.8724 21.3888 51.8237 21.0326 52.042 20.4953C53.0228 18.7701 54.294 17.8766 56.0726 17.166C54.054 15.468 51.2829 14.5291 48.7019 14.5985C47.8043 14.7243 47.1196 15.032 46.4944 15.7183ZM57.669 29.9887C57.5373 30.1935 57.4056 30.3982 57.2699 30.6092C57.3962 31.0251 57.5305 31.4384 57.669 31.8501C57.888 34.3493 57.6544 36.6609 56.0726 38.6751C55.7085 39.0134 55.3386 39.3357 54.9533 39.6478C54.8617 39.7363 54.7702 39.8248 54.6758 39.916C54.6758 40.0525 54.6758 40.189 54.6758 40.3296C56.5046 40.8808 58.3943 40.6236 60.0636 39.7092C61.7597 38.5557 62.7628 36.913 63.2111 34.8691C63.2796 34.4364 63.3405 34.0022 63.3912 33.5668C63.4559 33.091 63.4559 33.091 63.6554 32.8842C64.2416 32.8454 64.2416 32.8454 64.8527 32.8842C65.2518 33.2978 65.2518 33.2978 65.3141 34.0087C65.2436 36.3924 64.2848 38.7704 62.6078 40.4072C61.1989 41.6052 59.6013 42.2779 57.8686 42.8114C58.5136 44.3624 59.3343 45.4404 60.8618 46.1205C61.2086 46.2088 61.5581 46.2861 61.9094 46.3532C62.0874 46.3879 62.2654 46.4225 62.4488 46.4582C62.5836 46.4833 62.7183 46.5084 62.8572 46.5342C63.0817 47.7234 63.0817 47.7234 62.8572 48.1887C60.9809 48.3749 59.6322 48.056 58.0681 46.9478C57.0399 46.0493 56.4816 45.2509 56.1599 43.8972C56.0162 43.3073 56.0162 43.3073 55.6735 42.8114C54.9138 42.4168 54.1861 42.1771 53.3655 41.964C52.6803 41.7774 52.6803 41.7774 52.0817 41.3637C51.3742 41.3174 50.6741 41.2979 49.9654 41.3011C48.9254 41.2726 48.098 41.0313 47.1292 40.6316C46.8976 40.5368 46.666 40.442 46.4274 40.3444C46.1643 40.2347 46.1643 40.2347 45.8958 40.1228C45.8603 43.6053 45.8272 47.0878 45.797 50.5703C45.783 52.1876 45.7681 53.8049 45.7514 55.4221C45.7368 56.8329 45.7237 58.2437 45.7124 59.6546C45.7063 60.4005 45.6996 61.1464 45.691 61.8923C45.6814 62.7283 45.6752 63.5642 45.6692 64.4002C45.6659 64.6431 45.6626 64.8861 45.6592 65.1364C45.6439 68.2837 45.9537 71.0782 48.0869 73.4577C49.8647 75.1186 51.7683 75.5918 54.1185 75.5533C56.2653 75.37 57.9191 74.3163 59.3402 72.6837C59.7081 72.2268 59.8598 71.9887 60.0137 71.4041C60.2631 70.9387 60.2631 70.9387 60.6521 70.7957C60.8159 70.7533 60.9798 70.7109 61.1486 70.6673C62.7846 70.228 64.1583 69.1986 65.1395 67.7718C65.3191 67.454 65.4897 67.1306 65.6509 66.8024C65.7329 66.6373 65.815 66.4723 65.8995 66.3023C66.4778 64.9314 66.5134 63.6883 66.4197 62.2188C66.3855 61.4907 66.3784 61.1074 66.8131 60.517C67.1366 60.269 67.4703 60.0352 67.8085 59.8093C69.4468 58.644 70.4359 57.2585 70.8391 55.2205C70.9699 53.7341 70.7223 52.4813 70.2404 51.0842C69.4604 51.0842 68.9303 51.4274 68.2574 51.7951C67.0431 52.4551 66.1928 52.768 64.8153 52.7646C64.4962 52.7654 64.4962 52.7654 64.1706 52.7662C63.6554 52.7387 63.6554 52.7387 63.4559 52.5319C63.4184 51.9244 63.4184 51.9244 63.4559 51.291C63.9652 50.7631 64.2451 50.7953 64.9525 50.7093C66.8606 50.4014 68.4606 49.6017 69.6418 47.9819C70.711 46.1168 71.1584 44.4016 70.7237 42.237C70.2927 40.8219 69.572 39.8695 68.5903 38.8003C68.245 38.2614 68.245 38.2614 68.2801 37.6256C68.3343 37.426 68.3886 37.2263 68.4445 37.0205C68.9378 35.1118 68.7591 33.1746 67.8459 31.4364C66.9277 30.1109 65.95 29.091 64.4536 28.541C64.2272 28.4557 64.0009 28.3704 63.7677 28.2825C61.4835 27.7841 59.3856 28.3142 57.669 29.9887ZM48.2903 32.0569C47.7552 32.8888 47.7536 33.561 47.8912 34.5387C48.302 35.2287 48.6374 35.5369 49.2881 35.9864C49.7622 36.0597 49.7622 36.0597 50.2733 36.0511C50.5291 36.0563 50.5291 36.0563 50.7901 36.0616C51.3784 35.972 51.6544 35.7884 52.0817 35.366C52.0817 35.2295 52.0817 35.093 52.0817 34.9524C52.2134 34.9524 52.3451 34.9524 52.4808 34.9524C52.9932 34.0377 52.8236 33.3989 52.5821 32.4277C52.5487 32.3053 52.5153 32.183 52.4808 32.0569C52.2894 32.0249 52.2894 32.0249 52.0942 31.9923C51.9584 31.9453 51.8225 31.8984 51.6826 31.8501C51.6168 31.6453 51.5509 31.4406 51.4831 31.2296C50.1563 30.5421 49.2204 31.07 48.2903 32.0569Z" fill="#401F87"/>
<path d="M49.4874 25.8524C51.7663 25.644 53.3644 25.9338 55.2743 27.3001C55.7521 27.8664 55.7521 27.8664 56.0725 28.3342C55.7981 28.8512 55.7981 28.8512 55.4738 29.3683C55.3421 29.3683 55.2104 29.3683 55.0747 29.3683C55.0747 29.5048 55.0747 29.6413 55.0747 29.7819C54.8772 29.8843 54.8772 29.8843 54.6756 29.9887C54.5306 30.398 54.3966 30.8118 54.2765 31.2296C54.1448 31.2296 54.0131 31.2296 53.8775 31.2296C53.6914 32.6761 53.6002 34.1131 53.6779 35.5728C53.8999 35.8474 53.8999 35.8474 54.4636 35.8314C54.6653 35.8143 54.867 35.7972 55.0747 35.7796C55.5046 35.1113 55.5537 34.7656 55.6484 33.9829C55.8203 32.8348 56.0732 32.0071 56.6711 31.0228C57.0967 30.7724 57.0967 30.7724 57.4693 30.6092C58.2276 32.6371 58.1177 34.9799 57.2955 36.9664C56.7454 38.1086 56.1257 38.8605 55.1722 39.6478C54.8485 39.9058 54.8485 39.9058 54.6756 40.3296C56.9955 40.4383 58.997 40.4202 60.9239 38.8819C62.3617 37.4468 62.9578 35.6008 63.172 33.5871C63.2561 33.091 63.2561 33.091 63.6552 32.6774C64.2618 32.6105 64.6816 32.5829 65.2267 32.8842C65.757 33.8615 65.4667 35.0159 65.2267 36.0511C64.465 38.7107 63.0984 40.5503 60.7906 41.9244C59.979 42.3345 59.143 42.5914 58.2675 42.8115C58.2675 43.6587 58.5776 44.0029 59.0657 44.6728C60.1301 45.6657 61.0189 45.9706 62.4096 46.1908C62.857 46.3274 62.857 46.3274 63.2561 46.9478C63.1453 48.0968 63.1453 48.0968 62.857 48.3956C60.997 48.6541 59.6218 48.2105 58.0679 47.1546C56.8165 46.152 56.0546 44.931 55.7233 43.3285C55.7068 43.1579 55.6903 42.9873 55.6734 42.8115C55.5478 42.7912 55.4223 42.7709 55.293 42.7501C55.1222 42.7191 54.9514 42.6882 54.7754 42.6564C54.6087 42.6276 54.442 42.5988 54.2703 42.5691C53.7473 42.4179 53.3909 42.2439 52.9226 41.9745C52.0389 41.4985 51.2792 41.4656 50.2981 41.4671C48.9442 41.4302 47.8629 41.3076 46.6938 40.5365C46.5292 40.4341 46.3645 40.3317 46.1949 40.2262C45.6636 39.6756 45.6704 38.9724 45.6512 38.2237C45.6467 38.0552 45.6422 37.8867 45.6376 37.7131C45.6233 36.9441 45.612 36.1751 45.6043 35.406C45.599 35.0016 45.5908 34.5972 45.5797 34.193C45.477 30.3967 45.477 30.3967 46.3641 29.3247C47.4197 28.3776 48.5505 28.0241 49.8865 27.7137C49.9273 26.9527 49.8358 26.5176 49.4874 25.8524ZM48.2902 32.0569C47.755 32.8888 47.7535 33.561 47.8911 34.5387C48.3018 35.2287 48.6372 35.5369 49.2879 35.9865C49.762 36.0597 49.762 36.0597 50.2731 36.0511C50.529 36.0563 50.529 36.0563 50.7899 36.0616C51.3782 35.972 51.6542 35.7884 52.0815 35.366C52.0815 35.2295 52.0815 35.093 52.0815 34.9524C52.2132 34.9524 52.3449 34.9524 52.4806 34.9524C52.993 34.0377 52.8235 33.3989 52.582 32.4277C52.5485 32.3054 52.5151 32.183 52.4806 32.0569C52.2893 32.0249 52.2893 32.0249 52.094 31.9923C51.9582 31.9454 51.8224 31.8984 51.6824 31.8501C51.6166 31.6454 51.5507 31.4406 51.4829 31.2296C50.1561 30.5421 49.2202 31.0701 48.2902 32.0569Z" fill="#E22566"/>
<path d="M27.4625 33.7372C27.9364 33.9182 27.9364 33.9182 28.3355 34.3318C28.4352 34.8205 28.5203 35.3124 28.5974 35.8054C28.9711 37.9488 29.8239 39.2694 31.5158 40.5752C33.1161 41.5568 34.8221 41.7503 36.619 41.3217C37.6907 40.9659 38.6072 40.4014 39.4477 39.6316C39.9092 39.2955 39.9092 39.2955 40.5452 39.3084C41.1065 39.5023 41.1065 39.5023 41.5056 40.1228C41.4674 40.7321 41.3803 41.062 41.0075 41.5382C39.4441 42.9205 37.9902 43.7416 35.9183 43.8455C35.8627 44.2422 35.8627 44.2422 35.806 44.6469C35.454 46.2559 34.5423 47.5378 33.2493 48.486C31.8751 49.3396 30.5418 49.8088 28.9341 49.6364C28.5226 49.4166 28.5226 49.4166 28.3355 49.0159C28.3924 48.532 28.4583 48.0492 28.535 47.5682C28.8132 47.4966 28.8132 47.4966 29.097 47.4236C31.3521 46.8721 31.3521 46.8721 32.9851 45.273C33.1839 44.8715 33.3622 44.4712 33.5237 44.0523C33.3406 43.992 33.1574 43.9318 32.9687 43.8697C31.5165 43.367 30.2798 42.8606 29.1337 41.7773C28.9608 41.6195 28.788 41.4616 28.6099 41.299C27.136 39.5704 26.2022 37.6814 26.0781 35.353C26.1405 34.5387 26.1405 34.5387 26.4772 34.0087C26.9387 33.7114 26.9387 33.7114 27.4625 33.7372Z" fill="#401F87"/>
<path d="M64.2415 32.6125C64.8526 32.6772 64.8526 32.6772 65.2268 32.884C65.7572 33.8613 65.4668 35.0157 65.2268 36.0509C64.4651 38.7105 63.0985 40.5501 60.7908 41.9242C59.9791 42.3343 59.1431 42.5912 58.2676 42.8113C58.2676 43.6585 58.5777 44.0027 59.0658 44.6726C60.1302 45.6655 61.019 45.9704 62.4097 46.1906C62.8572 46.3272 62.8572 46.3272 63.2562 46.9476C63.1454 48.0966 63.1454 48.0966 62.8572 48.3954C60.9971 48.6539 59.6219 48.2103 58.068 47.1545C56.8166 46.1518 56.0547 44.9308 55.7234 43.3283C55.7069 43.1577 55.6904 42.9871 55.6735 42.8113C55.548 42.791 55.4224 42.7707 55.2931 42.7499C54.236 42.5585 53.3865 42.2865 52.4464 41.7538C51.9401 41.4992 51.4406 41.4212 50.8844 41.3635C51.0161 41.227 51.1478 41.0905 51.2835 40.9499C51.1947 40.8723 51.106 40.7947 51.0145 40.7148C50.6731 40.3948 50.3671 40.0874 50.0862 39.709C50.0862 38.9839 50.1907 38.7734 50.6848 38.2613C51.2336 38.1579 51.2336 38.1579 51.8821 38.2613C52.2071 38.551 52.4786 38.8679 52.7629 39.2C53.272 39.6861 53.8117 39.7538 54.4762 39.9158C54.5421 40.0523 54.6079 40.1888 54.6758 40.3295C56.9956 40.4381 58.9971 40.42 60.9241 38.8817C62.3618 37.4467 62.9579 35.6006 63.1721 33.5869C63.3011 32.8263 63.5101 32.6932 64.2415 32.6125Z" fill="#401F86"/>
<path d="M49.4625 49.5588C51.9417 49.6192 53.9637 50.7392 55.6867 52.552C57.148 54.3545 57.8196 56.4 57.8684 58.7364C58.0454 58.6809 58.2224 58.6255 58.4047 58.5684C59.0657 58.5296 59.0657 58.5296 59.6394 59.0337C59.7793 59.2086 59.9193 59.3835 60.0634 59.5637C59.8141 60.3192 59.73 60.5524 59.0657 61.0114C58.6934 61.0792 58.3187 61.1337 57.9433 61.1794C56.0896 61.485 54.8318 62.2796 53.6226 63.7695C53.0006 64.7666 52.7477 65.8652 52.4807 67.0091C52.1245 68.4124 52.1245 68.4124 51.6825 68.8705C51.0839 68.8317 51.0839 68.8317 50.4852 68.6637C49.8211 67.6312 50.0955 66.5399 50.2857 65.3546C50.9979 62.6667 52.7647 60.7237 55.0748 59.3568C55.2065 59.3568 55.3382 59.3568 55.4739 59.3568C55.3977 57.2795 55.0245 55.4396 53.6179 53.8826C52.4775 52.8175 51.2792 52.2984 49.7689 52.0245C49.5896 51.9914 49.4103 51.9584 49.2256 51.9243C49.0576 51.8969 48.8896 51.8694 48.7166 51.8411C48.2902 51.7046 48.2902 51.7046 47.8911 51.0841C48.0013 49.9137 48.3443 49.5756 49.4625 49.5588Z" fill="#401F87"/>
<path d="M36.542 51.8727C36.7524 51.8697 36.9628 51.8668 37.1796 51.8638C37.7143 51.9114 37.7143 51.9114 38.1134 52.3251C38.2243 53.4055 38.2243 53.4055 37.8796 53.9045C37.3915 54.2817 37.0076 54.3006 36.4048 54.3674C34.4807 54.6681 33.11 55.4054 31.8659 56.9736C30.9435 58.3999 30.6375 59.9433 30.5306 61.6319C30.6953 61.6745 30.8599 61.7172 31.0295 61.7612C32.9787 62.5548 34.4239 64.1877 35.2948 66.1302C35.7472 67.217 35.9538 68.1102 35.9808 69.2971C35.992 69.6206 35.992 69.6206 36.0034 69.9507C35.9184 70.5251 35.9184 70.5251 35.5482 70.9137C35.1202 71.1455 35.1202 71.1455 34.5964 71.1197C34.1225 70.9387 34.1225 70.9387 33.7234 70.3183C33.6578 69.9367 33.6053 69.5527 33.5613 69.1678C33.2722 67.2741 32.6271 65.8287 31.1605 64.6235C29.8545 63.7039 28.5998 63.3854 27.0394 63.2016C26.5397 63.0796 26.5397 63.0796 26.1406 62.4592C26.178 61.8258 26.178 61.8258 26.3402 61.2183C27.1085 60.6874 27.4548 60.8392 28.3356 61.0114C28.3192 60.828 28.3027 60.6446 28.2857 60.4556C28.2936 58.4552 29.1371 56.5433 30.3311 55.0137C30.4265 54.8868 30.522 54.7599 30.6203 54.6292C32.0558 52.9352 34.3927 51.8863 36.542 51.8727Z" fill="#401F87"/>
<path d="M49.4876 26.0591C49.9417 26.4316 50.0757 26.6044 50.1611 27.2095C50.1241 27.459 50.1241 27.459 50.0863 27.7136C49.5043 28.1158 49.3074 28.1769 48.652 28.2695C47.5438 28.5007 46.8498 29.1428 46.0954 29.9886C45.7528 30.6988 45.8469 31.5152 45.8327 32.2976C45.8285 32.4852 45.8244 32.6728 45.8201 32.8661C45.807 33.4667 45.7953 34.0673 45.7836 34.6679C45.7749 35.0745 45.7662 35.4812 45.7575 35.8878C45.7361 36.8858 45.7159 37.8838 45.6963 38.8818C45.116 38.4228 44.7079 38.0691 44.2994 37.4341C44.2994 37.2293 44.2994 37.0246 44.2994 36.8136C43.9043 36.916 43.9043 36.916 43.5013 37.0204C42.861 36.1457 42.7697 35.294 42.6477 34.2332C42.5425 33.695 42.5425 33.695 42.1621 33.3527C41.6378 33.0522 41.1522 32.9013 40.5704 32.7548C39.5279 32.4886 39.5279 32.4886 39.3108 32.2636C39.2734 31.5527 39.2734 31.5527 39.3108 30.8159C39.7823 30.3272 39.8907 30.3411 40.533 30.3376C41.4973 30.3555 42.2229 30.6251 43.1022 31.0227C43.168 30.7497 43.2339 30.4767 43.3017 30.1954C43.631 30.1954 43.9602 30.1954 44.2994 30.1954C44.32 30.0803 44.3406 29.9651 44.3618 29.8464C44.6867 28.7138 45.3479 27.9386 46.2949 27.3C46.8413 27.0785 47.3926 26.9459 47.9661 26.8217C48.113 26.7869 48.2599 26.7521 48.4112 26.7163C48.7693 26.6319 49.1284 26.5519 49.4876 26.4727C49.4876 26.3362 49.4876 26.1997 49.4876 26.0591Z" fill="#792180"/>
<path d="M55.8731 28.541C55.9389 28.7458 56.0048 28.9505 56.0726 29.1615C56.2043 29.1615 56.336 29.1615 56.4717 29.1615C56.5294 29.3236 56.587 29.4857 56.6463 29.6527C56.8407 30.2156 56.8407 30.2156 57.2699 30.6092C57.0353 30.9227 57.0353 30.9227 56.796 31.2426C55.9898 32.4194 55.8173 33.7345 55.5863 35.1309C55.474 35.5728 55.474 35.5728 55.0749 35.9865C54.4763 36.0382 54.4763 36.0382 53.8776 35.9865C53.4785 35.5728 53.4785 35.5728 53.4255 35.055C53.4321 33.7138 53.544 32.5264 53.8776 31.2297C54.0093 31.2297 54.141 31.2297 54.2767 31.2297C54.4084 30.7519 54.5401 30.2742 54.6758 29.7819C54.8075 29.7819 54.9392 29.7819 55.0749 29.7819C55.0749 29.6454 55.0749 29.5089 55.0749 29.3683C55.2066 29.3683 55.3383 29.3683 55.474 29.3683C55.6057 29.0953 55.7374 28.8223 55.8731 28.541Z" fill="#7E217E"/>
<path d="M49.8865 27.9204C49.8865 28.0569 49.8865 28.1934 49.8865 28.334C49.6808 28.3554 49.475 28.3767 49.263 28.3987C48.2431 28.5862 47.3556 28.9244 46.6938 29.7818C46.1773 30.5792 46.2252 31.4376 46.2121 32.3638C46.2082 32.5324 46.2044 32.7011 46.2004 32.8749C46.1885 33.4122 46.1792 33.9495 46.17 34.4869C46.1624 34.8518 46.1546 35.2167 46.1466 35.5816C46.1275 36.4748 46.1107 37.368 46.0952 38.2613C46.2474 38.2912 46.3997 38.321 46.5566 38.3518C47.0929 38.4681 47.0929 38.4681 47.6915 38.675C47.6915 38.8115 47.6915 38.948 47.6915 39.0886C48.0208 39.0886 48.35 39.0886 48.6893 39.0886C48.6893 39.2251 48.6893 39.3616 48.6893 39.5022C49.0185 39.5705 49.3478 39.6387 49.687 39.709C49.7158 39.5811 49.7446 39.4531 49.7743 39.3213C49.8865 38.8818 49.8865 38.8818 50.0861 38.4681C50.2178 38.5364 50.3495 38.6046 50.4852 38.675C50.3988 38.8861 50.3988 38.8861 50.3106 39.1015C50.2803 39.8394 50.4178 39.9553 50.8718 40.4975C51.0727 40.72 51.2756 40.9407 51.4829 41.1568C50.1904 41.6033 48.7417 41.5524 47.492 40.9887C46.3317 40.3678 46.3317 40.3678 45.8956 39.9159C45.7221 39.3474 45.6664 38.8176 45.6513 38.2236C45.6468 38.055 45.6423 37.8865 45.6376 37.7129C45.6234 36.9439 45.612 36.175 45.6043 35.4059C45.599 35.0015 45.5908 34.5971 45.5797 34.1928C45.477 30.3966 45.477 30.3966 46.3625 29.3253C47.3984 28.395 48.5064 27.9204 49.8865 27.9204Z" fill="#D8225F"/>
<path d="M57.0703 30.6091C57.202 30.6091 57.3337 30.6091 57.4694 30.6091C58.2283 32.6384 58.1158 34.9769 57.2972 36.9656C56.774 38.0463 56.1559 38.9126 55.2744 39.7091C55.0769 39.7091 54.8793 39.7091 54.6758 39.7091C54.6287 38.5141 54.7021 37.5348 55.0749 36.4C55.2066 36.4 55.3383 36.4 55.474 36.4C55.8088 35.6378 55.9199 35.0237 55.9479 34.1897C56.023 33.025 56.2297 31.4803 57.0703 30.6091Z" fill="#D6215E"/>
<path d="M51.2835 31.6432C51.9317 32.103 52.061 32.3919 52.2687 33.1815C52.2829 34.018 52.1946 34.3155 51.6826 34.9523C51.0681 35.483 50.7811 35.5745 49.9739 35.5599C49.2121 35.3445 48.9334 35.2106 48.4898 34.5387C48.2807 33.7438 48.2116 33.2903 48.5148 32.5222C49.353 31.4797 50.0118 31.2838 51.2835 31.6432Z" fill="#E72A6A"/>
<path d="M40.5328 30.3376C41.4971 30.3555 42.2227 30.6251 43.102 31.0227C43.1678 30.8862 43.2337 30.7497 43.3015 30.6091C43.2357 31.7011 43.1698 32.7931 43.102 33.9182C42.6496 33.6838 42.199 33.4453 41.7551 33.1943C41.0103 32.8381 40.307 32.6664 39.5102 32.4705C39.3106 32.2636 39.3106 32.2636 39.2732 31.5527C39.3255 30.523 39.5991 30.3427 40.5328 30.3376Z" fill="#421E86"/>
<path d="M51.2336 38.158C52.0454 38.2874 52.2593 38.5848 52.7886 39.1985C53.1696 39.5966 53.5629 39.7592 54.0771 39.9159C54.0771 39.9842 54.0771 40.0524 54.0771 40.1227C53.7997 40.1603 53.7997 40.1603 53.5167 40.1987C53.2777 40.2333 53.0387 40.268 52.7925 40.3037C52.5541 40.3373 52.3156 40.3709 52.07 40.4055C51.7794 40.4703 51.7794 40.4703 51.483 40.5364C51.4172 40.6729 51.3513 40.8094 51.2835 40.95C50.8445 40.5662 50.4371 40.1818 50.0862 39.7091C50.0862 38.8012 50.3416 38.326 51.2336 38.158Z" fill="#72207E"/>
<path d="M49.8867 27.9204C49.8867 28.0569 49.8867 28.1934 49.8867 28.334C49.6809 28.3554 49.4751 28.3767 49.2631 28.3987C48.2432 28.5862 47.3557 28.9244 46.6939 29.7818C46.3479 30.3955 46.2427 30.8491 46.2312 31.5573C46.2272 31.7436 46.2233 31.9298 46.2192 32.1217C46.2169 32.3211 46.2146 32.5204 46.2122 32.7257C46.2083 32.9311 46.2045 33.1365 46.2005 33.3481C46.1886 34.0035 46.1793 34.6588 46.1701 35.3142C46.1625 35.7588 46.1547 36.2034 46.1467 36.648C46.1276 37.7372 46.1106 38.8265 46.0953 39.9159C45.7764 39.3289 45.6439 38.8957 45.6287 38.2236C45.6242 38.055 45.6198 37.8865 45.6151 37.7129C45.6128 37.5324 45.6105 37.3518 45.6081 37.1658C45.6054 36.9781 45.6026 36.7904 45.5998 36.597C45.5951 36.2 45.5917 35.8029 45.5894 35.4059C45.584 34.8019 45.569 34.1987 45.5539 33.595C45.5103 30.3577 45.5103 30.3577 46.3634 29.3253C47.3988 28.3946 48.5068 27.9204 49.8867 27.9204Z" fill="#C22C79"/>
<path d="M42.7029 33.9182C42.8346 33.9182 42.9663 33.9182 43.102 33.9182C43.1678 34.123 43.2337 34.3277 43.3015 34.5387C43.4332 34.6069 43.5649 34.6752 43.7006 34.7455C43.7665 34.9502 43.8323 35.155 43.9002 35.3659C44.0319 35.2294 44.1636 35.0929 44.2993 34.9523C44.3502 35.1395 44.3502 35.1395 44.4021 35.3304C44.7001 36.3957 44.7001 36.3957 45.3344 37.2661C45.6961 37.6409 45.6961 37.6409 45.746 38.3131C45.7295 38.5008 45.713 38.6885 45.6961 38.8818C45.1158 38.4229 44.7077 38.0691 44.2993 37.4341C44.2993 37.2294 44.2993 37.0246 44.2993 36.8137C44.0359 36.8819 43.7725 36.9502 43.5011 37.0205C42.7889 36.0578 42.7664 35.087 42.7029 33.9182Z" fill="#7E227D"/>
<path d="M49.8866 26.8865C49.8866 27.2277 49.8866 27.569 49.8866 27.9206C49.7155 27.9611 49.5445 28.0016 49.3682 28.0434C47.7201 28.4901 46.8823 28.9794 45.8956 30.4024C45.7 30.6132 45.5016 30.8214 45.297 31.0228C45.2273 30.4159 45.1942 29.959 45.5051 29.4232C45.7709 29.0839 45.7709 29.0839 46.2947 28.541C46.4264 28.541 46.5581 28.541 46.6938 28.541C46.6938 28.4045 46.6938 28.268 46.6938 28.1274C47.2845 27.5617 47.8555 27.3597 48.6269 27.1579C48.8211 27.1059 49.0153 27.0539 49.2154 27.0004C49.687 26.8865 49.687 26.8865 49.8866 26.8865Z" fill="#681E7E"/>
<path d="M44.4989 31.0227C44.6964 31.0227 44.894 31.0227 45.0975 31.0227C45.0928 31.2009 45.0928 31.2009 45.088 31.3827C45.0755 31.9262 45.0677 32.4697 45.0601 33.0133C45.0551 33.2002 45.0501 33.3871 45.0449 33.5797C45.033 34.7018 45.1368 35.4095 45.6961 36.4C45.7336 37.098 45.7336 37.098 45.6961 37.6409C45.1428 37.3089 44.7725 37.018 44.5433 36.3854C44.1739 34.6472 44.1255 32.7641 44.4989 31.0227Z" fill="#5F1E80"/>
<path d="M54.0771 31.4363C54.3405 31.5045 54.6039 31.5728 54.8753 31.6431C54.886 32.2162 54.8939 32.7891 54.9002 33.3623C54.9035 33.5248 54.9069 33.6873 54.9103 33.8547C54.9116 34.0113 54.9129 34.1679 54.9142 34.3293C54.9163 34.4734 54.9184 34.6174 54.9206 34.7658C54.8753 35.159 54.8753 35.159 54.4762 35.7795C54.2128 35.7795 53.9494 35.7795 53.678 35.7795C53.8553 34.4146 53.8553 34.4146 53.9835 33.9375C54.0952 33.4206 54.0963 32.9478 54.0895 32.4187C54.0868 32.1419 54.0868 32.1419 54.0841 31.8596C54.0818 31.7199 54.0795 31.5802 54.0771 31.4363Z" fill="#631F82"/>
<path d="M56.4717 31.4363C56.5376 31.5728 56.6034 31.7093 56.6713 31.8499C56.6111 32.0032 56.5509 32.1565 56.4889 32.3144C56.179 33.1289 56.2034 33.9109 56.1802 34.7785C56.0463 35.5095 55.85 35.7568 55.2745 36.1931C54.8107 36.2812 54.8107 36.2812 54.3391 36.2577C54.1819 36.2527 54.0247 36.2476 53.8628 36.2424C53.4785 36.1931 53.4785 36.1931 53.279 35.9863C53.2537 35.4708 53.242 34.9636 53.2416 34.4481C53.2391 34.3045 53.2367 34.1609 53.2342 34.013C53.2331 33.6364 53.2547 33.2598 53.279 32.884C53.4107 32.7475 53.5424 32.611 53.6781 32.4704C53.6758 32.6919 53.6735 32.9135 53.6711 33.1417C53.6692 33.4307 53.6674 33.7196 53.6656 34.0086C53.6639 34.1548 53.6623 34.301 53.6605 34.4517C53.6588 34.8254 53.6677 35.1991 53.6781 35.5726C53.9001 35.8472 53.9001 35.8472 54.4638 35.8312C54.6655 35.8141 54.8671 35.797 55.0749 35.7795C55.5062 35.109 55.5609 34.7431 55.6611 33.9569C55.8024 32.9903 55.9815 32.2677 56.4717 31.4363Z" fill="#CF2C75"/>
<path d="M51.6824 25.6455C51.6824 25.7138 51.6824 25.782 51.6824 25.8523C50.9581 25.8523 50.2337 25.8523 49.4874 25.8523C49.4874 26.0571 49.4874 26.2618 49.4874 26.4728C49.2748 26.5364 49.2748 26.5364 49.0579 26.6012C48.7828 26.6848 48.7828 26.6848 48.5022 26.7701C48.2278 26.8529 48.2278 26.8529 47.948 26.9373C47.5039 27.0499 47.5039 27.0499 47.2924 27.3001C46.9599 27.3085 46.6271 27.3089 46.2947 27.3001C46.4264 27.2318 46.5581 27.1636 46.6938 27.0932C46.8239 26.6745 46.8239 26.6745 46.8933 26.266C48.5172 25.6993 49.9744 25.5695 51.6824 25.6455Z" fill="#54196A"/>
<path d="M54.4763 37.8477C54.894 38.5512 54.9112 39.0995 54.8754 39.9158C54.2849 40.1747 54.0782 40.1231 53.4661 39.8771C52.9063 39.5191 52.6237 39.2468 52.2812 38.6749C52.8739 38.7773 52.8739 38.7773 53.4785 38.8817C53.4785 38.7452 53.4785 38.6087 53.4785 38.4681C53.9774 38.132 53.9774 38.132 54.4763 37.8477Z" fill="#DA2972"/>
<path d="M45.4966 30.8159C45.5624 30.8159 45.6283 30.8159 45.6961 30.8159C45.6961 32.6587 45.6961 34.5014 45.6961 36.4C45.0764 35.4366 45.0666 34.5544 45.0601 33.4141C45.0573 33.1883 45.0544 32.9624 45.0515 32.7298C45.0994 32.0292 45.2559 31.4698 45.4966 30.8159Z" fill="#851F7D"/>
<path d="M54.6757 29.7817C54.8752 30.1954 54.8752 30.1954 54.6882 30.8417C54.6182 31.0379 54.5482 31.2341 54.4762 31.4363C54.3445 31.4363 54.2128 31.4363 54.0771 31.4363C54.0984 31.6136 54.1198 31.7909 54.1418 31.9735C54.2831 33.3705 54.3678 34.3428 53.678 35.5726C53.6121 35.5726 53.5463 35.5726 53.4784 35.5726C53.4337 34.0499 53.4981 32.704 53.8775 31.2295C54.0092 31.2295 54.1409 31.2295 54.2766 31.2295C54.4083 30.7517 54.54 30.274 54.6757 29.7817Z" fill="#91237B"/>
<path d="M55.2743 33.0908C55.4718 33.0908 55.6694 33.0908 55.8729 33.0908C55.8554 33.4185 55.8338 33.7459 55.8105 34.0732C55.799 34.2556 55.7874 34.4379 55.7755 34.6258C55.6582 35.238 55.4951 35.5424 55.0747 35.9863C54.4387 36.038 54.4387 36.038 53.8774 35.9863C54.0009 35.8668 54.1244 35.7474 54.2516 35.6243C54.9729 34.8328 55.1332 34.163 55.2743 33.0908Z" fill="#902373"/>
<path d="M54.8752 29.7817C55.3779 29.8512 55.608 29.9004 55.9229 30.3246C56.123 30.9815 56.0979 31.5795 56.0725 32.2636C55.875 32.1953 55.6774 32.1271 55.4739 32.0567C55.4739 31.852 55.4739 31.6472 55.4739 31.4363C55.3422 31.4363 55.2105 31.4363 55.0748 31.4363C55.0089 30.8903 54.9431 30.3443 54.8752 29.7817Z" fill="#631E82"/>
<path d="M50.0862 38.4683C50.2179 38.5365 50.3496 38.6048 50.4853 38.6751C50.4277 38.8158 50.37 38.9566 50.3107 39.1016C50.2804 39.8395 50.4179 39.9554 50.8719 40.4977C51.0728 40.7201 51.2757 40.9408 51.483 41.1569C50.8095 41.1052 50.8095 41.1052 50.0862 40.9501C49.7214 40.4898 49.6927 40.1822 49.6372 39.5928C49.6871 39.0887 49.6871 39.0887 50.0862 38.4683Z" fill="#D82873"/>
<path d="M46.0952 26.8865C46.2928 26.9547 46.4903 27.023 46.6939 27.0933C46.5622 27.0933 46.4305 27.0933 46.2948 27.0933C46.2948 27.2298 46.2948 27.3663 46.2948 27.5069C46.0103 27.7679 46.0103 27.7679 45.6338 28.0628C45.0975 28.5168 44.7956 28.8643 44.5488 29.5363C44.4664 29.7539 44.3841 29.9714 44.2993 30.1956C44.1018 30.2638 43.9042 30.3321 43.7007 30.4024C43.8678 28.9302 44.7364 28.0362 45.7593 27.0941C45.8702 27.0256 45.981 26.9571 46.0952 26.8865Z" fill="#521E83"/>
<path d="M49.8867 25.8522C50.2982 25.8409 50.7098 25.8329 51.1214 25.8263C51.3506 25.8215 51.5798 25.8167 51.8159 25.8118C52.4643 25.8512 52.8972 25.9776 53.4786 26.2658C53.4127 26.4023 53.3469 26.5388 53.279 26.6794C52.8893 26.565 52.4995 26.4505 52.1098 26.3361C51.6346 26.2579 51.343 26.3402 50.8845 26.4726C50.3357 26.3821 50.3357 26.3821 49.8867 26.2658C49.8867 26.1293 49.8867 25.9928 49.8867 25.8522Z" fill="#E02164"/>
<path d="M43.7007 36.8137C43.8982 36.8137 44.0958 36.8137 44.2993 36.8137C44.4146 37.0355 44.5298 37.2573 44.6485 37.4859C44.9214 37.9879 45.1414 38.3057 45.5465 38.7139C45.8957 39.0887 45.8957 39.0887 45.8957 39.916C46.0932 39.9842 46.2908 40.0525 46.4943 40.1228C46.2309 40.1911 45.9675 40.2593 45.6961 40.3296C45.6961 39.9884 45.6961 39.6471 45.6961 39.2955C45.5187 39.2188 45.5187 39.2188 45.3376 39.1404C44.8312 38.8427 44.5906 38.5403 44.2494 38.0546C44.1455 37.9096 44.0416 37.7646 43.9345 37.6151C43.7007 37.2274 43.7007 37.2274 43.7007 36.8137Z" fill="#5B1F88"/>
<path d="M42.703 33.9182C42.8347 33.9182 42.9664 33.9182 43.1021 33.9182C43.4825 34.5825 43.5456 35.0637 43.5262 35.8313C43.5226 36.0158 43.519 36.2003 43.5152 36.3903C43.5083 36.5999 43.5083 36.5999 43.5012 36.8137C43.1021 36.6068 43.1021 36.6068 42.8776 35.9476C42.7196 35.2341 42.6688 34.6453 42.703 33.9182Z" fill="#A61857"/>
<path d="M45.0976 29.9885C45.1634 29.9885 45.2293 29.9885 45.2971 29.9885C45.2971 31.763 45.2971 33.5375 45.2971 35.3658C45.1654 35.2975 45.0337 35.2293 44.898 35.159C44.8927 34.5859 44.8887 34.0129 44.8856 33.4398C44.8839 33.2773 44.8822 33.1148 44.8805 32.9474C44.8799 32.7908 44.8792 32.6341 44.8785 32.4728C44.8775 32.3287 44.8765 32.1847 44.8754 32.0363C44.898 31.6431 44.898 31.6431 45.0976 31.0226C44.9659 31.0226 44.8342 31.0226 44.6985 31.0226C44.8302 30.6814 44.9619 30.3401 45.0976 29.9885Z" fill="#6D2084"/>
<path d="M54.4761 40.1228C54.4761 40.1911 54.4761 40.2593 54.4761 40.3296C53.5449 40.6054 52.6137 40.8811 51.6825 41.1569C51.6166 40.9522 51.5508 40.7474 51.4829 40.5364C52.5064 40.1012 53.3908 40.0778 54.4761 40.1228Z" fill="#5B2083"/>
<path d="M51.2835 38.1968C51.481 38.2181 51.6786 38.2394 51.8821 38.2614C52.0138 38.4662 52.1455 38.6709 52.2812 38.8819C51.6885 38.8819 51.0959 38.8819 50.4853 38.8819C50.4853 39.2231 50.4853 39.5644 50.4853 39.916C50.3536 39.8477 50.2219 39.7795 50.0862 39.7091C50.3004 38.3029 50.3004 38.3029 51.2835 38.1968Z" fill="#8C2174"/>
<path d="M49.4875 25.8523C49.6192 25.8523 49.751 25.8523 49.8866 25.8523C49.9525 25.9888 50.0183 26.1253 50.0862 26.2659C50.4154 26.2659 50.7447 26.2659 51.0839 26.2659C51.0839 26.6072 51.0839 26.9484 51.0839 27.3C50.9522 27.3 50.8205 27.3 50.6848 27.3C50.4873 27.6071 50.4873 27.6071 50.2857 27.9205C50.154 27.8522 50.0223 27.784 49.8866 27.7137C49.8949 27.5601 49.9031 27.4065 49.9116 27.2483C49.8858 26.6615 49.7728 26.3512 49.4875 25.8523Z" fill="#CF2971"/>
<path d="M43.3015 31.0227C43.4332 31.0227 43.5649 31.0227 43.7006 31.0227C43.7006 31.1592 43.7006 31.2957 43.7006 31.4363C43.8982 31.3681 44.0957 31.2998 44.2992 31.2295C44.2334 31.7755 44.1675 32.3215 44.0997 32.8841C43.9021 32.9523 43.7046 33.0206 43.5011 33.0909C43.4352 32.4084 43.3694 31.7259 43.3015 31.0227Z" fill="#7F2782"/>
<path d="M48.6893 30.6091C49.3478 30.6774 50.0063 30.7456 50.6848 30.8159C50.6848 30.8842 50.6848 30.9524 50.6848 31.0228C50.4749 31.0782 50.265 31.1337 50.0487 31.1908C49.3727 31.409 48.8747 31.653 48.2902 32.0569C48.1585 31.8521 48.0268 31.6474 47.8911 31.4364C48.0887 31.3682 48.2862 31.2999 48.4898 31.2296C48.5556 31.0248 48.6215 30.8201 48.6893 30.6091Z" fill="#A01040"/>
<path d="M55.873 28.541C55.9389 28.7458 56.0047 28.9505 56.0726 29.1615C56.2043 29.1615 56.336 29.1615 56.4717 29.1615C56.5293 29.3236 56.5869 29.4857 56.6463 29.6527C56.8407 30.2156 56.8407 30.2156 57.2699 30.6092C57.0723 30.6774 56.8748 30.7457 56.6712 30.816C56.5395 30.7478 56.4078 30.6795 56.2721 30.6092C56.2721 30.4044 56.2721 30.1997 56.2721 29.9887C56.1404 29.9205 56.0087 29.8522 55.873 29.7819C55.873 29.3724 55.873 28.9629 55.873 28.541Z" fill="#652080"/>
<path d="M54.8752 38.4683C55.0069 38.4683 55.1386 38.4683 55.2743 38.4683C55.2743 38.6048 55.2743 38.7413 55.2743 38.8819C55.4719 38.9501 55.6694 39.0184 55.873 39.0887C55.611 39.3989 55.611 39.3989 55.2743 39.7092C55.0768 39.7092 54.8792 39.7092 54.6757 39.7092C54.6671 39.3646 54.6676 39.0197 54.6757 38.6751C54.7415 38.6068 54.8074 38.5386 54.8752 38.4683Z" fill="#C1164B"/>
<path d="M55.0747 34.3318C55.1406 34.3318 55.2064 34.3318 55.2743 34.3318C55.2827 34.8143 55.2824 35.297 55.2743 35.7795C55.0747 35.9863 55.0747 35.9863 54.4636 35.9993C54.2702 35.995 54.0767 35.9907 53.8774 35.9863C54.0009 35.8669 54.1244 35.7475 54.2516 35.6244C54.6384 35.1999 54.8552 34.8626 55.0747 34.3318Z" fill="#89207A"/>
<path d="M52.4807 34.3318C52.6429 34.6808 52.6429 34.6808 52.6803 35.1591C52.1939 35.7278 52.1939 35.7278 51.6825 36.1932C51.5508 36.0567 51.4191 35.9202 51.2834 35.7795C51.5408 35.495 51.8076 35.2195 52.0816 34.9522C52.2133 34.9522 52.345 34.9522 52.4807 34.9522C52.4807 34.7475 52.4807 34.5427 52.4807 34.3318Z" fill="#BF1540"/>
<path d="M52.6802 32.6772C52.8119 32.6772 52.9436 32.6772 53.0793 32.6772C53.3495 33.2375 53.2918 33.7133 53.2788 34.3318C53.0813 34.3318 52.8837 34.3318 52.6802 34.3318C52.6802 33.7858 52.6802 33.2398 52.6802 32.6772Z" fill="#CF1452"/>
<path d="M45.0974 38.4683C45.4965 38.7268 45.4965 38.7268 45.8956 39.0887C45.8956 39.3617 45.8956 39.6347 45.8956 39.916C46.0931 39.9842 46.2907 40.0525 46.4942 40.1228C46.2308 40.1911 45.9674 40.2593 45.6961 40.3296C45.6961 39.9884 45.6961 39.6471 45.6961 39.2955C45.4985 39.2273 45.3009 39.159 45.0974 39.0887C45.0974 38.884 45.0974 38.6792 45.0974 38.4683Z" fill="#601668"/>
<path d="M51.6826 25.8523C53.0296 26.0074 53.0296 26.0074 53.4785 26.4727C52.727 26.7324 52.4066 26.5494 51.6826 26.2659C51.6826 26.1294 51.6826 25.9929 51.6826 25.8523Z" fill="#A50E3C"/>
<path d="M54.6758 27.0933C55.1746 27.3647 55.1746 27.3647 55.6735 27.7137C55.6735 27.9185 55.6735 28.1232 55.6735 28.3342C55.3443 28.2659 55.015 28.1977 54.6758 28.1274C54.6758 27.7861 54.6758 27.4449 54.6758 27.0933Z" fill="#A20F45"/>
</g>
<defs>
<clipPath id="clip0_5002_3639">
<rect width="88" height="91" fill="white"/>
</clipPath>
</defs>
</svg>
