<svg width="88" height="91" viewBox="0 0 88 91" fill="none" xmlns="http://www.w3.org/2000/svg">
<g clip-path="url(#clip0_5001_3595)">
<path d="M65.1905 3.06654C65.4935 3.16369 65.8009 3.24611 66.1089 3.32426C69.5242 4.19905 72.8202 5.87152 75.5334 8.19003C75.6219 8.26494 75.7105 8.33984 75.8017 8.41702C80.5952 12.4962 83.8187 17.8543 85.2134 24.115C85.2374 24.2206 85.2614 24.3262 85.2862 24.435C85.9809 27.6412 85.898 31.3549 85.3601 34.58C85.3435 34.6798 85.3269 34.7796 85.3099 34.8824C84.5913 38.9937 82.7389 43.1464 80.2267 46.41C80.1642 46.4915 80.1018 46.573 80.0374 46.657C75.9509 51.9424 70.2425 55.5014 63.8001 56.7234C63.6568 56.7517 63.5135 56.7801 63.3659 56.8093C62.1578 57.0278 60.9704 57.0736 59.7479 57.0662C59.4294 57.0646 59.111 57.0662 58.7925 57.0682C56.9725 57.07 55.1427 56.9496 53.3867 56.42C53.4314 56.5487 53.4762 56.6773 53.5222 56.8098C53.6809 57.3329 53.7763 57.8327 53.8588 58.3739C53.8739 58.472 53.889 58.5701 53.9045 58.6712C53.953 58.9886 54.0001 59.3063 54.0467 59.624C54.0629 59.7337 54.079 59.8433 54.0957 59.9563C54.2045 60.6982 54.3095 61.4407 54.4134 62.1834C54.4339 62.3255 54.4545 62.4676 54.4756 62.6141C55.4328 69.4348 54.9853 77.6725 50.9679 83.4187C48.9759 86.1597 45.9845 88.0616 42.6801 88.5734C40.3859 88.7504 38.1429 88.6349 35.9334 87.9667C35.8106 87.9301 35.6879 87.8935 35.5614 87.8558C29.7367 86.0763 24.7455 82.3733 20.2401 78.26C20.1663 78.1928 20.0926 78.1256 20.0167 78.0563C18.8589 76.9924 17.7616 75.8641 16.6651 74.7338C16.5607 74.6264 16.5607 74.6264 16.4542 74.5169C15.7077 73.7483 14.9783 72.9733 14.2925 72.1463C14.0216 71.8196 13.7391 71.5047 13.4567 71.1886C12.7907 70.4252 12.18 69.6253 11.5718 68.8129C11.2845 68.4298 10.9919 68.0522 10.6941 67.6777C8.86932 65.3789 7.48573 62.9625 6.74673 60.06C6.71345 59.9337 6.68018 59.8074 6.64589 59.6773C5.54709 54.6746 7.14355 48.3939 9.09282 43.827C9.24996 43.3464 9.24943 43.23 9.09339 42.77C8.94317 42.5134 8.94317 42.5134 8.75079 42.2706C8.68015 42.1764 8.60951 42.0822 8.53673 41.9851C8.46028 41.8844 8.38383 41.7837 8.30506 41.6799C6.04849 38.6322 2.57208 33.8641 2.31006 29.9352C2.77246 28.6442 4.7147 27.9663 5.83923 27.3095C6.10421 27.1542 6.3691 26.9987 6.63393 26.8431C6.80801 26.741 6.98227 26.6392 7.15669 26.5376C7.57992 26.2906 7.99743 26.0374 8.41126 25.7738C8.64087 25.6281 8.64087 25.6281 8.87511 25.4794C9.00948 25.3919 9.14384 25.3044 9.28228 25.2143C9.74696 24.9932 10.0539 24.9705 10.5601 25.025C10.9628 25.2863 10.9628 25.2863 11.3576 25.6412C11.4975 25.7661 11.6374 25.891 11.7815 26.0198C12.1845 26.4005 12.5736 26.7896 12.9531 27.1952C13.6236 27.8918 14.3647 28.5078 15.1067 29.12C14.8832 28.7064 14.6596 28.2928 14.4359 27.8793C14.2472 27.5304 14.0587 27.1813 13.8703 26.8321C13.2725 25.7257 13.2725 25.7257 12.6558 24.6305C12.6009 24.5344 12.5459 24.4383 12.4894 24.3393C12.349 24.0955 12.2068 23.8529 12.0645 23.6103C11.8654 23.1729 11.8094 22.9231 11.8801 22.4467C12.4887 21.7559 13.2236 21.3231 14.0067 20.8732C14.0989 20.8188 14.1911 20.7645 14.2861 20.7086C14.9135 20.3626 15.413 20.1645 16.1334 20.3234C17.0163 21.1314 17.5371 22.4568 18.0951 23.5084C18.1899 23.6856 18.2848 23.8627 18.3798 24.0398C18.6096 24.4689 18.8385 24.8984 19.0667 25.3284C18.8832 23.4927 18.8832 23.4927 18.5448 21.683C18.3288 20.6886 18.1854 19.513 18.3334 18.5034C18.58 18.1167 18.7727 18.0486 19.2037 17.9097C22.2439 17.2718 22.2439 17.2718 22.9838 17.6384C23.5014 18.2694 23.5297 18.941 23.6317 19.7451C23.6786 20.0728 23.7256 20.4004 23.7727 20.728C23.8061 20.9709 23.8061 20.9709 23.8401 21.2188C23.9344 21.8835 24.0474 22.5441 24.1634 23.205C24.1993 23.4136 24.2352 23.6221 24.2711 23.8307C24.2961 23.9746 24.321 24.1184 24.3467 24.2667C24.4562 23.8814 24.5654 23.4961 24.6745 23.1107C24.7681 22.7801 24.8619 22.4496 24.9559 22.1192C25.1744 21.3478 25.3892 20.5765 25.5842 19.7985C25.6156 19.6749 25.6469 19.5513 25.6792 19.424C25.7367 19.1952 25.7925 18.966 25.8464 18.7363C26.0068 18.1022 26.1413 17.6422 26.6934 17.29C27.1224 17.3028 27.4547 17.3446 27.8667 17.4417C28.0314 17.4794 28.0314 17.4794 28.1993 17.5179C28.5429 17.6022 28.8829 17.6959 29.2234 17.7924C29.3391 17.8228 29.4548 17.8532 29.574 17.8846C30.7535 18.2173 30.7535 18.2173 31.0934 18.8067C31.0837 19.9077 30.7158 20.9843 30.4334 22.0391C30.3863 22.2179 30.3392 22.3967 30.2907 22.5809C29.9495 23.872 29.9495 23.872 29.7734 24.4184C30.9815 24.6862 31.9492 24.6128 33.0236 23.9509C33.79 23.2681 33.9018 22.1387 34.1184 21.167C34.78 18.2146 36.5236 15.4282 38.2801 13.0434C38.382 12.9038 38.4839 12.7642 38.5889 12.6204C42.1162 7.98044 47.4415 4.32375 53.0637 3.10453C53.2865 3.05546 53.5087 3.0037 53.7303 2.94976C57.2806 2.08837 61.6758 1.92728 65.1905 3.06654ZM48.6934 6.9767C48.5944 7.02558 48.4954 7.07445 48.3934 7.12481C42.6854 9.99803 38.2346 15.3558 36.1116 21.5154C33.998 27.9848 34.581 34.9198 37.4258 41.0365C38.525 43.3292 39.9408 45.3227 41.6534 47.1684C41.7821 47.3111 41.9109 47.4538 42.0436 47.6009C43.7312 49.4378 45.6768 50.8554 47.8418 52.0296C48.0817 52.1598 48.3198 52.2935 48.5576 52.4275C51.6997 54.143 55.3325 54.9692 58.8684 54.9413C59.1492 54.9399 59.1492 54.9399 59.4357 54.9385C60.7216 54.9245 61.9479 54.8464 63.2134 54.6C63.4013 54.5688 63.5893 54.5375 63.7829 54.5052C66.0255 54.1218 68.0877 53.4008 70.1067 52.325C70.2012 52.275 70.2957 52.225 70.3931 52.1734C72.6854 50.9435 74.7297 49.3536 76.5601 47.4717C76.6326 47.3973 76.7051 47.3229 76.7798 47.2463C79.3051 44.6207 81.1204 41.4059 82.2801 37.9167C82.3332 37.7802 82.3332 37.7802 82.3875 37.641C82.7353 36.7474 82.9215 35.8353 83.1051 34.8928C83.1527 34.6578 83.1527 34.6578 83.2013 34.418C84.1463 29.6558 83.6573 24.6529 81.8401 20.1717C81.7711 20.0015 81.7711 20.0015 81.7008 19.8279C79.3162 14.0651 74.6611 9.02551 69.0279 6.63367C68.2695 6.32429 67.5039 6.03865 66.7334 5.76337C66.5564 5.69944 66.3795 5.6355 66.1971 5.56964C60.469 3.62692 54.082 4.3156 48.6934 6.9767ZM30.4976 28.1532C27.9816 30.8821 26.4769 34.5331 24.9278 37.8843C23.5999 40.7509 22.2178 43.504 20.2401 45.955C20.1774 46.0328 20.1147 46.1105 20.0501 46.1906C17.6537 49.1241 17.6537 49.1241 16.4115 49.3471C16.0939 49.3604 16.0939 49.3604 15.5467 49.2917C15.2494 48.8305 15.1754 48.6179 15.2603 48.0742C15.5252 47.5072 16.0508 47.1911 16.5367 46.8342C16.9049 46.5809 16.9049 46.5809 17.0134 46.1067C16.8724 45.7322 16.7219 45.3784 16.5551 45.0166C15.5913 42.8166 15.1298 40.7824 14.9601 38.3717C14.2758 38.9129 13.8168 39.4523 13.3559 40.2012C13.2926 40.3027 13.2292 40.4042 13.164 40.5087C13.037 40.7135 12.9108 40.9187 12.7853 41.1244C12.6409 41.3601 12.4921 41.593 12.3424 41.8251C10.7831 44.3677 9.873 47.4344 9.24006 50.3534C9.20943 50.4921 9.1788 50.6308 9.14725 50.7738C8.74066 52.6881 8.59748 54.5786 8.58923 56.5338C8.58831 56.6359 8.58739 56.7381 8.58644 56.8434C8.57878 58.1848 8.71039 59.3845 9.09339 60.6667C9.1452 60.843 9.197 61.0194 9.25037 61.2011C10.024 63.364 11.3679 65.1144 12.7601 66.885C12.8686 67.025 12.9771 67.165 13.0889 67.3092C15.0685 69.8437 17.1928 72.2363 19.4151 74.5442C19.5231 74.6567 19.6312 74.7692 19.7426 74.885C20.4225 75.586 21.1248 76.2488 21.8534 76.895C22.0139 77.0408 22.1744 77.1867 22.3346 77.3328C27.6591 82.1428 34.5813 86.9365 41.9467 86.45C43.9654 86.1652 45.771 85.4812 47.3734 84.175C47.4615 84.1087 47.5496 84.0425 47.6404 83.9742C50.721 81.5072 51.7157 77.1561 52.3601 73.4067C52.3937 73.2172 52.4274 73.0278 52.462 72.8326C53.1044 68.5338 52.7384 63.7518 51.8931 59.5002C51.7989 59.017 51.7338 58.5356 51.6766 58.0463C51.5461 56.6554 51.5461 56.6554 50.8762 55.5112C50.5016 55.3574 50.1311 55.2519 49.7401 55.1529C49.0528 54.9382 48.4127 54.5902 47.7676 54.2683C47.6208 54.1958 47.4739 54.1232 47.3227 54.0485C44.9186 52.8399 42.8668 51.176 40.9201 49.2917C40.7809 49.1578 40.6418 49.0239 40.4984 48.8859C38.1425 46.5671 36.4199 43.6837 35.0534 40.6467C34.6073 40.7486 34.6073 40.7486 34.4428 41.0646C34.3892 41.1799 34.3357 41.2952 34.2805 41.4139C34.2203 41.543 34.16 41.672 34.0979 41.805C34.0351 41.9452 33.9723 42.0853 33.9076 42.2297C33.8423 42.3746 33.777 42.5194 33.7098 42.6686C32.4462 45.5276 30.6577 49.9424 31.3867 53.0834C31.6797 53.7962 32.0634 54.4536 32.4518 55.1143C34.2172 58.1224 35.3331 61.5581 34.5492 65.0668C34.3605 65.7565 34.1647 66.1833 33.5867 66.5817C33.1376 66.5533 33.1376 66.5533 32.7067 66.43C32.4134 65.975 32.4134 65.975 32.4501 65.4821C32.5601 64.9134 32.5601 64.9134 32.7159 64.4489C33.4776 61.7876 32.1805 58.8297 30.9714 56.5225C30.7576 56.1212 30.5413 55.7218 30.3208 55.3243C28.5917 52.1921 29.7601 48.6363 30.6205 45.3718C31.2965 42.9276 32.3242 40.5921 33.813 38.5648C34.1179 37.8565 33.9449 37.4226 33.7334 36.7034C32.8646 33.2706 32.9216 29.9105 33.0001 26.39C32.1416 26.39 31.102 27.5627 30.4976 28.1532Z" fill="#E9296A"/>
<path d="M73.48 13.0433C73.9516 13.2207 74.2853 13.4516 74.6533 13.8017C74.7304 13.8717 74.8076 13.9416 74.8871 14.0138C75.5182 14.7281 75.4687 15.5441 75.4697 16.4706C75.2745 17.6832 74.2692 18.4878 73.4613 19.3178C73.326 19.458 73.1908 19.5982 73.0514 19.7426C72.6821 20.1252 72.3119 20.5069 71.9414 20.8884C71.5534 21.2883 71.1661 21.6891 70.7787 22.0897C70.1286 22.7618 69.478 23.4334 68.8269 24.1046C68.0743 24.8805 67.3224 25.6572 66.571 26.4343C65.7703 27.2624 64.969 28.0899 64.1676 28.9173C63.9369 29.1556 63.7062 29.394 63.4756 29.6324C63.0463 30.0762 62.6163 30.5193 62.1863 30.9624C62.0585 31.0946 61.9308 31.2268 61.7991 31.363C61.6821 31.4833 61.5651 31.6037 61.4446 31.7276C61.343 31.8324 61.2414 31.9372 61.1367 32.0452C60.6142 32.5478 60.2733 32.6448 59.5661 32.6634C58.7327 32.5166 58.1776 31.8414 57.6125 31.2433C57.5343 31.1624 57.4561 31.0814 57.3756 30.9981C56.4245 30.0035 56.4245 30.0035 56.3933 29.2432C56.4447 27.8597 57.7352 26.8536 58.6262 25.9352C58.7517 25.8046 58.8773 25.6739 59.0067 25.5394C59.3482 25.1844 59.6905 24.8301 60.0331 24.4762C60.3202 24.1795 60.6068 23.8823 60.8935 23.5852C61.5702 22.8838 62.2476 22.1831 62.9256 21.483C63.6227 20.7631 64.3184 20.0417 65.0135 19.3197C65.6127 18.6974 66.2128 18.0759 66.8136 17.4552C67.1714 17.0855 67.5288 16.7155 67.8854 16.3446C68.2832 15.931 68.6827 15.5192 69.0825 15.1076C69.2572 14.9252 69.2572 14.9252 69.4354 14.7392C70.6922 13.4517 71.6529 12.7528 73.48 13.0433Z" fill="#322554"/>
<path d="M56.2466 31.8691C56.76 32.0018 56.76 32.0018 57.0441 32.2672C57.2395 32.6949 57.2862 32.8986 57.2 33.3668C56.7655 33.983 56.2618 34.503 55.7333 35.0351C55.6516 35.1258 55.5699 35.2165 55.4858 35.31C55.2933 35.4901 55.2933 35.4901 55 35.4901C54.9606 35.5871 54.9213 35.6841 54.8808 35.784C54.7066 36.0968 54.7066 36.0968 54.2666 36.2484C54.194 36.4737 54.194 36.4737 54.12 36.7034C54.0232 36.7034 53.9264 36.7034 53.8266 36.7034C53.7925 36.788 53.7584 36.8725 53.7232 36.9595C53.4841 37.401 53.1868 37.7078 52.8412 38.0661C52.6362 38.2787 52.6362 38.2787 52.427 38.4956C52.3558 38.5686 52.2847 38.6415 52.2114 38.7167C51.993 38.9408 51.7762 39.1666 51.5596 39.3926C51.4229 39.5335 51.2862 39.6745 51.1454 39.8197C51.0197 39.9493 50.8941 40.0789 50.7647 40.2124C50.4533 40.4951 50.4533 40.4951 50.16 40.4951C50.1048 40.6261 50.1048 40.6261 50.0485 40.7598C49.8422 41.1477 49.6063 41.4078 49.3029 41.7197C49.1375 41.8902 49.1375 41.8902 48.9689 42.0642C48.8537 42.1814 48.7386 42.2986 48.62 42.4194C48.4473 42.5978 48.4473 42.5978 48.2711 42.7799C47.2591 43.8183 47.2591 43.8183 46.5758 43.8697C46.0533 43.8318 46.0533 43.8318 45.7691 43.6706C45.5054 43.1733 45.5245 42.8751 45.6133 42.3151C46.4125 41.1003 47.6143 40.0722 48.6177 39.0365C48.8092 38.8384 49.0007 38.6402 49.1921 38.442C49.5913 38.029 49.9907 37.6163 50.3903 37.2038C50.9026 36.6749 51.4142 36.1454 51.9256 35.6156C52.3199 35.2074 52.7145 34.7994 53.1093 34.3916C53.2982 34.1964 53.4869 34.0011 53.6756 33.8056C53.9385 33.5334 54.2018 33.2617 54.4653 32.9901C54.543 32.9094 54.6207 32.8287 54.7008 32.7456C55.5774 31.8444 55.5774 31.8444 56.2466 31.8691Z" fill="#322554"/>
<path d="M42.4417 35.1392C43.2384 35.4375 43.4436 35.9646 43.8534 36.7032C43.9688 36.8919 44.0849 37.0801 44.2017 37.2678C44.3241 37.4682 44.4463 37.6686 44.5684 37.8692C44.6279 37.9646 44.6875 38.06 44.7488 38.1583C45.105 38.7592 45.2634 39.1838 45.1734 39.8882C44.8612 40.379 44.6506 40.4774 44.1009 40.6276C43.363 40.4465 43.1958 40.1003 42.8038 39.4528C42.7146 39.2962 42.6253 39.1396 42.5334 38.9782C42.4251 38.7994 42.3166 38.6206 42.208 38.4421C41.26 36.8364 41.26 36.8364 41.3601 35.7932C41.6781 35.2671 41.8433 35.1965 42.4417 35.1392Z" fill="#322554"/>
<path d="M50.1332 44.3361C50.8491 44.565 51.4765 45.0046 52.1125 45.4053C52.3327 45.5396 52.3327 45.5396 52.5574 45.6767C53.6398 46.3478 53.6398 46.3478 53.9733 46.8651C54.0469 47.3595 54.0171 47.5564 53.7442 47.9742C53.367 48.2442 53.1358 48.3107 52.6801 48.2987C51.9508 48.1424 51.3265 47.6725 50.7008 47.2727C50.4806 47.1374 50.4806 47.1374 50.256 46.9993C49.1758 46.3243 49.1758 46.3243 48.84 45.8035C48.7726 45.2575 48.7795 44.991 49.0692 44.5238C49.4725 44.2564 49.6691 44.2538 50.1332 44.3361Z" fill="#322554"/>
<path d="M52.1486 41.6279C52.3353 41.6271 52.522 41.6263 52.7144 41.6255C52.8112 41.6268 52.9081 41.628 53.0079 41.6293C53.3029 41.6326 53.5973 41.6294 53.8923 41.6255C54.0792 41.6263 54.266 41.6271 54.4586 41.6279C54.7145 41.6289 54.7145 41.6289 54.9756 41.6299C55.5335 41.7242 55.78 41.9012 56.1733 42.3151C56.2558 42.7701 56.2558 42.7701 56.1733 43.2251C55.8413 43.6897 55.6681 43.8188 55.1097 43.9079C54.9251 43.9076 54.7405 43.9073 54.5503 43.907C54.4512 43.9072 54.3522 43.9074 54.2501 43.9077C54.0414 43.9074 53.8327 43.9057 53.624 43.9025C53.3047 43.8981 52.9856 43.8994 52.6662 43.9014C52.4631 43.9004 52.26 43.8992 52.0569 43.8975C51.8725 43.896 51.6881 43.8946 51.498 43.893C51.04 43.8318 51.04 43.8318 50.7605 43.6327C50.4841 43.1919 50.5398 42.8224 50.6 42.3151C51.0522 41.6821 51.407 41.6308 52.1486 41.6279Z" fill="#322554"/>
<path d="M46.7225 32.9211C47.3874 33.1086 47.3874 33.1086 47.6667 33.5183C47.726 33.978 47.726 33.978 47.7303 34.5367C47.7311 34.6356 47.7318 34.7345 47.7326 34.8364C47.7336 35.0454 47.7334 35.2543 47.7321 35.4633C47.7309 35.7823 47.7351 36.1009 47.7398 36.4198C47.74 36.6231 47.7399 36.8264 47.7395 37.0297C47.7397 37.2143 47.74 37.3988 47.7403 37.589C47.6529 38.158 47.5259 38.3385 47.08 38.675C46.2169 38.7846 46.2169 38.7846 45.8058 38.509C45.5139 38.0705 45.5537 37.6959 45.5498 37.1684C45.549 37.0661 45.5482 36.9638 45.5475 36.8584C45.5465 36.6424 45.5467 36.4263 45.548 36.2102C45.5492 35.8802 45.545 35.5506 45.5403 35.2207C45.5401 35.0105 45.5402 34.8003 45.5406 34.59C45.5402 34.3037 45.5402 34.3037 45.5398 34.0116C45.6134 33.5183 45.6134 33.5183 45.8786 33.1474C46.2 32.9116 46.2 32.9116 46.7225 32.9211Z" fill="#322554"/>
</g>
<defs>
<clipPath id="clip0_5001_3595">
<rect width="88" height="91" fill="white"/>
</clipPath>
</defs>
</svg>
